G04 EAGLE Gerber RS-274X export*
G75*
%MOMM*%
%FSLAX34Y34*%
%LPD*%
%INTop Silkscreen*%
%IPPOS*%
%AMOC8*
5,1,8,0,0,1.08239X$1,22.5*%
G01*
%ADD10C,0.101600*%
%ADD11C,0.127000*%
%ADD12C,0.152400*%


D10*
X87874Y64169D02*
X87874Y66766D01*
X87876Y66865D01*
X87882Y66965D01*
X87891Y67064D01*
X87904Y67162D01*
X87921Y67260D01*
X87942Y67358D01*
X87967Y67454D01*
X87995Y67549D01*
X88027Y67643D01*
X88062Y67736D01*
X88101Y67828D01*
X88144Y67918D01*
X88189Y68006D01*
X88239Y68093D01*
X88291Y68177D01*
X88347Y68260D01*
X88405Y68340D01*
X88467Y68418D01*
X88532Y68493D01*
X88600Y68566D01*
X88670Y68636D01*
X88743Y68704D01*
X88818Y68769D01*
X88896Y68831D01*
X88976Y68889D01*
X89059Y68945D01*
X89143Y68997D01*
X89230Y69047D01*
X89318Y69092D01*
X89408Y69135D01*
X89500Y69174D01*
X89593Y69209D01*
X89687Y69241D01*
X89782Y69269D01*
X89878Y69294D01*
X89976Y69315D01*
X90074Y69332D01*
X90172Y69345D01*
X90271Y69354D01*
X90371Y69360D01*
X90470Y69362D01*
X96962Y69362D01*
X97061Y69360D01*
X97161Y69354D01*
X97260Y69345D01*
X97358Y69332D01*
X97456Y69315D01*
X97554Y69294D01*
X97650Y69269D01*
X97745Y69241D01*
X97839Y69209D01*
X97932Y69174D01*
X98024Y69135D01*
X98114Y69092D01*
X98202Y69047D01*
X98289Y68997D01*
X98373Y68945D01*
X98456Y68889D01*
X98536Y68831D01*
X98614Y68769D01*
X98689Y68704D01*
X98762Y68636D01*
X98832Y68566D01*
X98900Y68493D01*
X98965Y68418D01*
X99027Y68340D01*
X99085Y68260D01*
X99141Y68177D01*
X99193Y68093D01*
X99243Y68006D01*
X99288Y67918D01*
X99331Y67828D01*
X99370Y67736D01*
X99405Y67644D01*
X99437Y67549D01*
X99465Y67454D01*
X99490Y67358D01*
X99511Y67260D01*
X99528Y67162D01*
X99541Y67064D01*
X99550Y66965D01*
X99556Y66865D01*
X99558Y66766D01*
X99558Y64169D01*
X99558Y59423D02*
X87874Y59423D01*
X87874Y52932D02*
X99558Y59423D01*
X99558Y52932D02*
X87874Y52932D01*
X96962Y47612D02*
X99558Y44366D01*
X87874Y44366D01*
X87874Y41121D02*
X87874Y47612D01*
X57874Y404169D02*
X57874Y406766D01*
X57876Y406865D01*
X57882Y406965D01*
X57891Y407064D01*
X57904Y407162D01*
X57921Y407260D01*
X57942Y407358D01*
X57967Y407454D01*
X57995Y407549D01*
X58027Y407643D01*
X58062Y407736D01*
X58101Y407828D01*
X58144Y407918D01*
X58189Y408006D01*
X58239Y408093D01*
X58291Y408177D01*
X58347Y408260D01*
X58405Y408340D01*
X58467Y408418D01*
X58532Y408493D01*
X58600Y408566D01*
X58670Y408636D01*
X58743Y408704D01*
X58818Y408769D01*
X58896Y408831D01*
X58976Y408889D01*
X59059Y408945D01*
X59143Y408997D01*
X59230Y409047D01*
X59318Y409092D01*
X59408Y409135D01*
X59500Y409174D01*
X59593Y409209D01*
X59687Y409241D01*
X59782Y409269D01*
X59878Y409294D01*
X59976Y409315D01*
X60074Y409332D01*
X60172Y409345D01*
X60271Y409354D01*
X60371Y409360D01*
X60470Y409362D01*
X66962Y409362D01*
X67061Y409360D01*
X67161Y409354D01*
X67260Y409345D01*
X67358Y409332D01*
X67456Y409315D01*
X67554Y409294D01*
X67650Y409269D01*
X67745Y409241D01*
X67839Y409209D01*
X67932Y409174D01*
X68024Y409135D01*
X68114Y409092D01*
X68202Y409047D01*
X68289Y408997D01*
X68373Y408945D01*
X68456Y408889D01*
X68536Y408831D01*
X68614Y408769D01*
X68689Y408704D01*
X68762Y408636D01*
X68832Y408566D01*
X68900Y408493D01*
X68965Y408418D01*
X69027Y408340D01*
X69085Y408260D01*
X69141Y408177D01*
X69193Y408093D01*
X69243Y408006D01*
X69288Y407918D01*
X69331Y407828D01*
X69370Y407736D01*
X69405Y407644D01*
X69437Y407549D01*
X69465Y407454D01*
X69490Y407358D01*
X69511Y407260D01*
X69528Y407162D01*
X69541Y407064D01*
X69550Y406965D01*
X69556Y406865D01*
X69558Y406766D01*
X69558Y404169D01*
X69558Y399423D02*
X57874Y399423D01*
X57874Y392932D02*
X69558Y399423D01*
X69558Y392932D02*
X57874Y392932D01*
X69558Y384042D02*
X69556Y383935D01*
X69550Y383829D01*
X69540Y383723D01*
X69527Y383617D01*
X69509Y383511D01*
X69488Y383407D01*
X69463Y383303D01*
X69434Y383200D01*
X69402Y383099D01*
X69365Y382999D01*
X69325Y382900D01*
X69282Y382802D01*
X69235Y382706D01*
X69184Y382612D01*
X69130Y382520D01*
X69073Y382430D01*
X69013Y382342D01*
X68949Y382257D01*
X68882Y382174D01*
X68812Y382093D01*
X68740Y382015D01*
X68664Y381939D01*
X68586Y381867D01*
X68505Y381797D01*
X68422Y381730D01*
X68337Y381666D01*
X68249Y381606D01*
X68159Y381549D01*
X68067Y381495D01*
X67973Y381444D01*
X67877Y381397D01*
X67779Y381354D01*
X67680Y381314D01*
X67580Y381277D01*
X67479Y381245D01*
X67376Y381216D01*
X67272Y381191D01*
X67168Y381170D01*
X67062Y381152D01*
X66956Y381139D01*
X66850Y381129D01*
X66744Y381123D01*
X66637Y381121D01*
X69558Y384042D02*
X69556Y384163D01*
X69550Y384284D01*
X69540Y384404D01*
X69527Y384525D01*
X69509Y384644D01*
X69488Y384764D01*
X69463Y384882D01*
X69434Y384999D01*
X69401Y385116D01*
X69365Y385231D01*
X69324Y385345D01*
X69281Y385458D01*
X69233Y385570D01*
X69182Y385679D01*
X69127Y385787D01*
X69069Y385894D01*
X69008Y385998D01*
X68943Y386100D01*
X68875Y386200D01*
X68804Y386298D01*
X68730Y386394D01*
X68653Y386487D01*
X68572Y386577D01*
X68489Y386665D01*
X68403Y386750D01*
X68314Y386833D01*
X68223Y386912D01*
X68129Y386989D01*
X68033Y387062D01*
X67935Y387132D01*
X67834Y387199D01*
X67731Y387263D01*
X67626Y387324D01*
X67519Y387381D01*
X67411Y387434D01*
X67301Y387484D01*
X67189Y387530D01*
X67076Y387573D01*
X66961Y387612D01*
X64365Y382095D02*
X64443Y382016D01*
X64523Y381940D01*
X64606Y381867D01*
X64692Y381797D01*
X64779Y381730D01*
X64870Y381666D01*
X64962Y381606D01*
X65056Y381548D01*
X65153Y381494D01*
X65251Y381444D01*
X65351Y381397D01*
X65452Y381353D01*
X65555Y381313D01*
X65660Y381277D01*
X65765Y381245D01*
X65872Y381216D01*
X65979Y381191D01*
X66088Y381169D01*
X66197Y381152D01*
X66306Y381138D01*
X66416Y381129D01*
X66527Y381123D01*
X66637Y381121D01*
X64365Y382094D02*
X57874Y387612D01*
X57874Y381121D01*
X87874Y414169D02*
X87874Y416766D01*
X87876Y416865D01*
X87882Y416965D01*
X87891Y417064D01*
X87904Y417162D01*
X87921Y417260D01*
X87942Y417358D01*
X87967Y417454D01*
X87995Y417549D01*
X88027Y417643D01*
X88062Y417736D01*
X88101Y417828D01*
X88144Y417918D01*
X88189Y418006D01*
X88239Y418093D01*
X88291Y418177D01*
X88347Y418260D01*
X88405Y418340D01*
X88467Y418418D01*
X88532Y418493D01*
X88600Y418566D01*
X88670Y418636D01*
X88743Y418704D01*
X88818Y418769D01*
X88896Y418831D01*
X88976Y418889D01*
X89059Y418945D01*
X89143Y418997D01*
X89230Y419047D01*
X89318Y419092D01*
X89408Y419135D01*
X89500Y419174D01*
X89593Y419209D01*
X89687Y419241D01*
X89782Y419269D01*
X89878Y419294D01*
X89976Y419315D01*
X90074Y419332D01*
X90172Y419345D01*
X90271Y419354D01*
X90371Y419360D01*
X90470Y419362D01*
X96962Y419362D01*
X97061Y419360D01*
X97161Y419354D01*
X97260Y419345D01*
X97358Y419332D01*
X97456Y419315D01*
X97554Y419294D01*
X97650Y419269D01*
X97745Y419241D01*
X97839Y419209D01*
X97932Y419174D01*
X98024Y419135D01*
X98114Y419092D01*
X98202Y419047D01*
X98289Y418997D01*
X98373Y418945D01*
X98456Y418889D01*
X98536Y418831D01*
X98614Y418769D01*
X98689Y418704D01*
X98762Y418636D01*
X98832Y418566D01*
X98900Y418493D01*
X98965Y418418D01*
X99027Y418340D01*
X99085Y418260D01*
X99141Y418177D01*
X99193Y418093D01*
X99243Y418006D01*
X99288Y417918D01*
X99331Y417828D01*
X99370Y417736D01*
X99405Y417644D01*
X99437Y417549D01*
X99465Y417454D01*
X99490Y417358D01*
X99511Y417260D01*
X99528Y417162D01*
X99541Y417064D01*
X99550Y416965D01*
X99556Y416865D01*
X99558Y416766D01*
X99558Y414169D01*
X99558Y409423D02*
X87874Y409423D01*
X87874Y402932D02*
X99558Y409423D01*
X99558Y402932D02*
X87874Y402932D01*
X87874Y397612D02*
X87874Y394366D01*
X87876Y394253D01*
X87882Y394140D01*
X87892Y394027D01*
X87906Y393914D01*
X87923Y393802D01*
X87945Y393691D01*
X87970Y393581D01*
X88000Y393471D01*
X88033Y393363D01*
X88070Y393256D01*
X88110Y393150D01*
X88155Y393046D01*
X88203Y392943D01*
X88254Y392842D01*
X88309Y392743D01*
X88367Y392646D01*
X88429Y392551D01*
X88494Y392458D01*
X88562Y392368D01*
X88633Y392280D01*
X88708Y392194D01*
X88785Y392111D01*
X88865Y392031D01*
X88948Y391954D01*
X89034Y391879D01*
X89122Y391808D01*
X89212Y391740D01*
X89305Y391675D01*
X89400Y391613D01*
X89497Y391555D01*
X89596Y391500D01*
X89697Y391449D01*
X89800Y391401D01*
X89904Y391356D01*
X90010Y391316D01*
X90117Y391279D01*
X90225Y391246D01*
X90335Y391216D01*
X90445Y391191D01*
X90556Y391169D01*
X90668Y391152D01*
X90781Y391138D01*
X90894Y391128D01*
X91007Y391122D01*
X91120Y391120D01*
X91233Y391122D01*
X91346Y391128D01*
X91459Y391138D01*
X91572Y391152D01*
X91684Y391169D01*
X91795Y391191D01*
X91905Y391216D01*
X92015Y391246D01*
X92123Y391279D01*
X92230Y391316D01*
X92336Y391356D01*
X92440Y391401D01*
X92543Y391449D01*
X92644Y391500D01*
X92743Y391555D01*
X92840Y391613D01*
X92935Y391675D01*
X93028Y391740D01*
X93118Y391808D01*
X93206Y391879D01*
X93292Y391954D01*
X93375Y392031D01*
X93455Y392111D01*
X93532Y392194D01*
X93607Y392280D01*
X93678Y392368D01*
X93746Y392458D01*
X93811Y392551D01*
X93873Y392646D01*
X93931Y392743D01*
X93986Y392842D01*
X94037Y392943D01*
X94085Y393046D01*
X94130Y393150D01*
X94170Y393256D01*
X94207Y393363D01*
X94240Y393471D01*
X94270Y393581D01*
X94295Y393691D01*
X94317Y393802D01*
X94334Y393914D01*
X94348Y394027D01*
X94358Y394140D01*
X94364Y394253D01*
X94366Y394366D01*
X99558Y393717D02*
X99558Y397612D01*
X99558Y393717D02*
X99556Y393616D01*
X99550Y393516D01*
X99540Y393416D01*
X99527Y393316D01*
X99509Y393217D01*
X99488Y393118D01*
X99463Y393021D01*
X99434Y392924D01*
X99401Y392829D01*
X99365Y392735D01*
X99325Y392643D01*
X99282Y392552D01*
X99235Y392463D01*
X99185Y392376D01*
X99131Y392290D01*
X99074Y392207D01*
X99014Y392127D01*
X98951Y392048D01*
X98884Y391972D01*
X98815Y391899D01*
X98743Y391829D01*
X98669Y391761D01*
X98592Y391696D01*
X98512Y391635D01*
X98430Y391576D01*
X98346Y391521D01*
X98260Y391469D01*
X98172Y391420D01*
X98082Y391375D01*
X97990Y391333D01*
X97897Y391295D01*
X97802Y391261D01*
X97707Y391230D01*
X97610Y391203D01*
X97512Y391180D01*
X97413Y391160D01*
X97313Y391145D01*
X97213Y391133D01*
X97113Y391125D01*
X97012Y391121D01*
X96912Y391121D01*
X96811Y391125D01*
X96711Y391133D01*
X96611Y391145D01*
X96511Y391160D01*
X96412Y391180D01*
X96314Y391203D01*
X96217Y391230D01*
X96122Y391261D01*
X96027Y391295D01*
X95934Y391333D01*
X95842Y391375D01*
X95752Y391420D01*
X95664Y391469D01*
X95578Y391521D01*
X95494Y391576D01*
X95412Y391635D01*
X95332Y391696D01*
X95255Y391761D01*
X95181Y391829D01*
X95109Y391899D01*
X95040Y391972D01*
X94973Y392048D01*
X94910Y392127D01*
X94850Y392207D01*
X94793Y392290D01*
X94739Y392376D01*
X94689Y392463D01*
X94642Y392552D01*
X94599Y392643D01*
X94559Y392735D01*
X94523Y392829D01*
X94490Y392924D01*
X94461Y393021D01*
X94436Y393118D01*
X94415Y393217D01*
X94397Y393316D01*
X94384Y393416D01*
X94374Y393516D01*
X94368Y393616D01*
X94366Y393717D01*
X94365Y393717D02*
X94365Y396314D01*
X187874Y306766D02*
X187874Y304169D01*
X187874Y306766D02*
X187876Y306865D01*
X187882Y306965D01*
X187891Y307064D01*
X187904Y307162D01*
X187921Y307260D01*
X187942Y307358D01*
X187967Y307454D01*
X187995Y307549D01*
X188027Y307643D01*
X188062Y307736D01*
X188101Y307828D01*
X188144Y307918D01*
X188189Y308006D01*
X188239Y308093D01*
X188291Y308177D01*
X188347Y308260D01*
X188405Y308340D01*
X188467Y308418D01*
X188532Y308493D01*
X188600Y308566D01*
X188670Y308636D01*
X188743Y308704D01*
X188818Y308769D01*
X188896Y308831D01*
X188976Y308889D01*
X189059Y308945D01*
X189143Y308997D01*
X189230Y309047D01*
X189318Y309092D01*
X189408Y309135D01*
X189500Y309174D01*
X189593Y309209D01*
X189687Y309241D01*
X189782Y309269D01*
X189878Y309294D01*
X189976Y309315D01*
X190074Y309332D01*
X190172Y309345D01*
X190271Y309354D01*
X190371Y309360D01*
X190470Y309362D01*
X196962Y309362D01*
X197061Y309360D01*
X197161Y309354D01*
X197260Y309345D01*
X197358Y309332D01*
X197456Y309315D01*
X197554Y309294D01*
X197650Y309269D01*
X197745Y309241D01*
X197839Y309209D01*
X197932Y309174D01*
X198024Y309135D01*
X198114Y309092D01*
X198202Y309047D01*
X198289Y308997D01*
X198373Y308945D01*
X198456Y308889D01*
X198536Y308831D01*
X198614Y308769D01*
X198689Y308704D01*
X198762Y308636D01*
X198832Y308566D01*
X198900Y308493D01*
X198965Y308418D01*
X199027Y308340D01*
X199085Y308260D01*
X199141Y308177D01*
X199193Y308093D01*
X199243Y308006D01*
X199288Y307918D01*
X199331Y307828D01*
X199370Y307736D01*
X199405Y307644D01*
X199437Y307549D01*
X199465Y307454D01*
X199490Y307358D01*
X199511Y307260D01*
X199528Y307162D01*
X199541Y307064D01*
X199550Y306965D01*
X199556Y306865D01*
X199558Y306766D01*
X199558Y304169D01*
X199558Y299423D02*
X187874Y299423D01*
X187874Y292932D02*
X199558Y299423D01*
X199558Y292932D02*
X187874Y292932D01*
X187874Y287612D02*
X187874Y284366D01*
X187876Y284253D01*
X187882Y284140D01*
X187892Y284027D01*
X187906Y283914D01*
X187923Y283802D01*
X187945Y283691D01*
X187970Y283581D01*
X188000Y283471D01*
X188033Y283363D01*
X188070Y283256D01*
X188110Y283150D01*
X188155Y283046D01*
X188203Y282943D01*
X188254Y282842D01*
X188309Y282743D01*
X188367Y282646D01*
X188429Y282551D01*
X188494Y282458D01*
X188562Y282368D01*
X188633Y282280D01*
X188708Y282194D01*
X188785Y282111D01*
X188865Y282031D01*
X188948Y281954D01*
X189034Y281879D01*
X189122Y281808D01*
X189212Y281740D01*
X189305Y281675D01*
X189400Y281613D01*
X189497Y281555D01*
X189596Y281500D01*
X189697Y281449D01*
X189800Y281401D01*
X189904Y281356D01*
X190010Y281316D01*
X190117Y281279D01*
X190225Y281246D01*
X190335Y281216D01*
X190445Y281191D01*
X190556Y281169D01*
X190668Y281152D01*
X190781Y281138D01*
X190894Y281128D01*
X191007Y281122D01*
X191120Y281120D01*
X191233Y281122D01*
X191346Y281128D01*
X191459Y281138D01*
X191572Y281152D01*
X191684Y281169D01*
X191795Y281191D01*
X191905Y281216D01*
X192015Y281246D01*
X192123Y281279D01*
X192230Y281316D01*
X192336Y281356D01*
X192440Y281401D01*
X192543Y281449D01*
X192644Y281500D01*
X192743Y281555D01*
X192840Y281613D01*
X192935Y281675D01*
X193028Y281740D01*
X193118Y281808D01*
X193206Y281879D01*
X193292Y281954D01*
X193375Y282031D01*
X193455Y282111D01*
X193532Y282194D01*
X193607Y282280D01*
X193678Y282368D01*
X193746Y282458D01*
X193811Y282551D01*
X193873Y282646D01*
X193931Y282743D01*
X193986Y282842D01*
X194037Y282943D01*
X194085Y283046D01*
X194130Y283150D01*
X194170Y283256D01*
X194207Y283363D01*
X194240Y283471D01*
X194270Y283581D01*
X194295Y283691D01*
X194317Y283802D01*
X194334Y283914D01*
X194348Y284027D01*
X194358Y284140D01*
X194364Y284253D01*
X194366Y284366D01*
X199558Y283717D02*
X199558Y287612D01*
X199558Y283717D02*
X199556Y283616D01*
X199550Y283516D01*
X199540Y283416D01*
X199527Y283316D01*
X199509Y283217D01*
X199488Y283118D01*
X199463Y283021D01*
X199434Y282924D01*
X199401Y282829D01*
X199365Y282735D01*
X199325Y282643D01*
X199282Y282552D01*
X199235Y282463D01*
X199185Y282376D01*
X199131Y282290D01*
X199074Y282207D01*
X199014Y282127D01*
X198951Y282048D01*
X198884Y281972D01*
X198815Y281899D01*
X198743Y281829D01*
X198669Y281761D01*
X198592Y281696D01*
X198512Y281635D01*
X198430Y281576D01*
X198346Y281521D01*
X198260Y281469D01*
X198172Y281420D01*
X198082Y281375D01*
X197990Y281333D01*
X197897Y281295D01*
X197802Y281261D01*
X197707Y281230D01*
X197610Y281203D01*
X197512Y281180D01*
X197413Y281160D01*
X197313Y281145D01*
X197213Y281133D01*
X197113Y281125D01*
X197012Y281121D01*
X196912Y281121D01*
X196811Y281125D01*
X196711Y281133D01*
X196611Y281145D01*
X196511Y281160D01*
X196412Y281180D01*
X196314Y281203D01*
X196217Y281230D01*
X196122Y281261D01*
X196027Y281295D01*
X195934Y281333D01*
X195842Y281375D01*
X195752Y281420D01*
X195664Y281469D01*
X195578Y281521D01*
X195494Y281576D01*
X195412Y281635D01*
X195332Y281696D01*
X195255Y281761D01*
X195181Y281829D01*
X195109Y281899D01*
X195040Y281972D01*
X194973Y282048D01*
X194910Y282127D01*
X194850Y282207D01*
X194793Y282290D01*
X194739Y282376D01*
X194689Y282463D01*
X194642Y282552D01*
X194599Y282643D01*
X194559Y282735D01*
X194523Y282829D01*
X194490Y282924D01*
X194461Y283021D01*
X194436Y283118D01*
X194415Y283217D01*
X194397Y283316D01*
X194384Y283416D01*
X194374Y283516D01*
X194368Y283616D01*
X194366Y283717D01*
X194365Y283717D02*
X194365Y286314D01*
X247874Y324169D02*
X247874Y326766D01*
X247876Y326865D01*
X247882Y326965D01*
X247891Y327064D01*
X247904Y327162D01*
X247921Y327260D01*
X247942Y327358D01*
X247967Y327454D01*
X247995Y327549D01*
X248027Y327643D01*
X248062Y327736D01*
X248101Y327828D01*
X248144Y327918D01*
X248189Y328006D01*
X248239Y328093D01*
X248291Y328177D01*
X248347Y328260D01*
X248405Y328340D01*
X248467Y328418D01*
X248532Y328493D01*
X248600Y328566D01*
X248670Y328636D01*
X248743Y328704D01*
X248818Y328769D01*
X248896Y328831D01*
X248976Y328889D01*
X249059Y328945D01*
X249143Y328997D01*
X249230Y329047D01*
X249318Y329092D01*
X249408Y329135D01*
X249500Y329174D01*
X249593Y329209D01*
X249687Y329241D01*
X249782Y329269D01*
X249878Y329294D01*
X249976Y329315D01*
X250074Y329332D01*
X250172Y329345D01*
X250271Y329354D01*
X250371Y329360D01*
X250470Y329362D01*
X256962Y329362D01*
X257061Y329360D01*
X257161Y329354D01*
X257260Y329345D01*
X257358Y329332D01*
X257456Y329315D01*
X257554Y329294D01*
X257650Y329269D01*
X257745Y329241D01*
X257839Y329209D01*
X257932Y329174D01*
X258024Y329135D01*
X258114Y329092D01*
X258202Y329047D01*
X258289Y328997D01*
X258373Y328945D01*
X258456Y328889D01*
X258536Y328831D01*
X258614Y328769D01*
X258689Y328704D01*
X258762Y328636D01*
X258832Y328566D01*
X258900Y328493D01*
X258965Y328418D01*
X259027Y328340D01*
X259085Y328260D01*
X259141Y328177D01*
X259193Y328093D01*
X259243Y328006D01*
X259288Y327918D01*
X259331Y327828D01*
X259370Y327736D01*
X259405Y327644D01*
X259437Y327549D01*
X259465Y327454D01*
X259490Y327358D01*
X259511Y327260D01*
X259528Y327162D01*
X259541Y327064D01*
X259550Y326965D01*
X259556Y326865D01*
X259558Y326766D01*
X259558Y324169D01*
X259558Y319423D02*
X247874Y319423D01*
X247874Y312932D02*
X259558Y319423D01*
X259558Y312932D02*
X247874Y312932D01*
X250470Y307612D02*
X259558Y305015D01*
X250470Y307612D02*
X250470Y301121D01*
X253067Y303068D02*
X247874Y303068D01*
X307874Y324169D02*
X307874Y326766D01*
X307876Y326865D01*
X307882Y326965D01*
X307891Y327064D01*
X307904Y327162D01*
X307921Y327260D01*
X307942Y327358D01*
X307967Y327454D01*
X307995Y327549D01*
X308027Y327643D01*
X308062Y327736D01*
X308101Y327828D01*
X308144Y327918D01*
X308189Y328006D01*
X308239Y328093D01*
X308291Y328177D01*
X308347Y328260D01*
X308405Y328340D01*
X308467Y328418D01*
X308532Y328493D01*
X308600Y328566D01*
X308670Y328636D01*
X308743Y328704D01*
X308818Y328769D01*
X308896Y328831D01*
X308976Y328889D01*
X309059Y328945D01*
X309143Y328997D01*
X309230Y329047D01*
X309318Y329092D01*
X309408Y329135D01*
X309500Y329174D01*
X309593Y329209D01*
X309687Y329241D01*
X309782Y329269D01*
X309878Y329294D01*
X309976Y329315D01*
X310074Y329332D01*
X310172Y329345D01*
X310271Y329354D01*
X310371Y329360D01*
X310470Y329362D01*
X316962Y329362D01*
X317061Y329360D01*
X317161Y329354D01*
X317260Y329345D01*
X317358Y329332D01*
X317456Y329315D01*
X317554Y329294D01*
X317650Y329269D01*
X317745Y329241D01*
X317839Y329209D01*
X317932Y329174D01*
X318024Y329135D01*
X318114Y329092D01*
X318202Y329047D01*
X318289Y328997D01*
X318373Y328945D01*
X318456Y328889D01*
X318536Y328831D01*
X318614Y328769D01*
X318689Y328704D01*
X318762Y328636D01*
X318832Y328566D01*
X318900Y328493D01*
X318965Y328418D01*
X319027Y328340D01*
X319085Y328260D01*
X319141Y328177D01*
X319193Y328093D01*
X319243Y328006D01*
X319288Y327918D01*
X319331Y327828D01*
X319370Y327736D01*
X319405Y327644D01*
X319437Y327549D01*
X319465Y327454D01*
X319490Y327358D01*
X319511Y327260D01*
X319528Y327162D01*
X319541Y327064D01*
X319550Y326965D01*
X319556Y326865D01*
X319558Y326766D01*
X319558Y324169D01*
X319558Y319423D02*
X307874Y319423D01*
X307874Y312932D02*
X319558Y319423D01*
X319558Y312932D02*
X307874Y312932D01*
X307874Y307612D02*
X307874Y303717D01*
X307876Y303618D01*
X307882Y303518D01*
X307891Y303419D01*
X307904Y303321D01*
X307921Y303223D01*
X307942Y303125D01*
X307967Y303029D01*
X307995Y302934D01*
X308027Y302840D01*
X308062Y302747D01*
X308101Y302655D01*
X308144Y302565D01*
X308189Y302477D01*
X308239Y302390D01*
X308291Y302306D01*
X308347Y302223D01*
X308405Y302143D01*
X308467Y302065D01*
X308532Y301990D01*
X308600Y301917D01*
X308670Y301847D01*
X308743Y301779D01*
X308818Y301714D01*
X308896Y301652D01*
X308976Y301594D01*
X309059Y301538D01*
X309143Y301486D01*
X309230Y301436D01*
X309318Y301391D01*
X309408Y301348D01*
X309500Y301309D01*
X309593Y301274D01*
X309687Y301242D01*
X309782Y301214D01*
X309878Y301189D01*
X309976Y301168D01*
X310074Y301151D01*
X310172Y301138D01*
X310271Y301129D01*
X310371Y301123D01*
X310470Y301121D01*
X311769Y301121D01*
X311868Y301123D01*
X311968Y301129D01*
X312067Y301138D01*
X312165Y301151D01*
X312263Y301168D01*
X312361Y301189D01*
X312457Y301214D01*
X312552Y301242D01*
X312646Y301274D01*
X312739Y301309D01*
X312831Y301348D01*
X312921Y301391D01*
X313009Y301436D01*
X313096Y301486D01*
X313180Y301538D01*
X313263Y301594D01*
X313343Y301652D01*
X313421Y301714D01*
X313496Y301779D01*
X313569Y301847D01*
X313639Y301917D01*
X313707Y301990D01*
X313772Y302065D01*
X313834Y302143D01*
X313892Y302223D01*
X313948Y302306D01*
X314000Y302390D01*
X314050Y302477D01*
X314095Y302565D01*
X314138Y302655D01*
X314177Y302747D01*
X314212Y302840D01*
X314244Y302934D01*
X314272Y303029D01*
X314297Y303125D01*
X314318Y303223D01*
X314335Y303321D01*
X314348Y303419D01*
X314357Y303518D01*
X314363Y303618D01*
X314365Y303717D01*
X314365Y307612D01*
X319558Y307612D01*
X319558Y301121D01*
X249558Y149362D02*
X237874Y149362D01*
X249558Y149362D02*
X249558Y144169D01*
X244365Y144169D02*
X244365Y149362D01*
X246962Y139860D02*
X249558Y136614D01*
X237874Y136614D01*
X237874Y133369D02*
X237874Y139860D01*
X199558Y229362D02*
X191120Y229362D01*
X191007Y229360D01*
X190894Y229354D01*
X190781Y229344D01*
X190668Y229330D01*
X190556Y229313D01*
X190445Y229291D01*
X190335Y229266D01*
X190225Y229236D01*
X190117Y229203D01*
X190010Y229166D01*
X189904Y229126D01*
X189800Y229081D01*
X189697Y229033D01*
X189596Y228982D01*
X189497Y228927D01*
X189400Y228869D01*
X189305Y228807D01*
X189212Y228742D01*
X189122Y228674D01*
X189034Y228603D01*
X188948Y228528D01*
X188865Y228451D01*
X188785Y228371D01*
X188708Y228288D01*
X188633Y228202D01*
X188562Y228114D01*
X188494Y228024D01*
X188429Y227931D01*
X188367Y227836D01*
X188309Y227739D01*
X188254Y227640D01*
X188203Y227539D01*
X188155Y227436D01*
X188110Y227332D01*
X188070Y227226D01*
X188033Y227119D01*
X188000Y227011D01*
X187970Y226901D01*
X187945Y226791D01*
X187923Y226680D01*
X187906Y226568D01*
X187892Y226455D01*
X187882Y226342D01*
X187876Y226229D01*
X187874Y226116D01*
X187876Y226003D01*
X187882Y225890D01*
X187892Y225777D01*
X187906Y225664D01*
X187923Y225552D01*
X187945Y225441D01*
X187970Y225331D01*
X188000Y225221D01*
X188033Y225113D01*
X188070Y225006D01*
X188110Y224900D01*
X188155Y224796D01*
X188203Y224693D01*
X188254Y224592D01*
X188309Y224493D01*
X188367Y224396D01*
X188429Y224301D01*
X188494Y224208D01*
X188562Y224118D01*
X188633Y224030D01*
X188708Y223944D01*
X188785Y223861D01*
X188865Y223781D01*
X188948Y223704D01*
X189034Y223629D01*
X189122Y223558D01*
X189212Y223490D01*
X189305Y223425D01*
X189400Y223363D01*
X189497Y223305D01*
X189596Y223250D01*
X189697Y223199D01*
X189800Y223151D01*
X189904Y223106D01*
X190010Y223066D01*
X190117Y223029D01*
X190225Y222996D01*
X190335Y222966D01*
X190445Y222941D01*
X190556Y222919D01*
X190668Y222902D01*
X190781Y222888D01*
X190894Y222878D01*
X191007Y222872D01*
X191120Y222870D01*
X191120Y222871D02*
X199558Y222871D01*
X196962Y217551D02*
X199558Y214306D01*
X187874Y214306D01*
X187874Y217551D02*
X187874Y211060D01*
X296350Y209362D02*
X309558Y209362D01*
X309558Y205693D01*
X309556Y205573D01*
X309550Y205453D01*
X309540Y205333D01*
X309527Y205214D01*
X309509Y205095D01*
X309488Y204977D01*
X309462Y204860D01*
X309433Y204743D01*
X309400Y204628D01*
X309363Y204514D01*
X309323Y204401D01*
X309279Y204289D01*
X309231Y204179D01*
X309180Y204070D01*
X309125Y203963D01*
X309066Y203859D01*
X309005Y203756D01*
X308940Y203655D01*
X308871Y203556D01*
X308800Y203459D01*
X308725Y203365D01*
X308648Y203274D01*
X308567Y203185D01*
X308483Y203099D01*
X308397Y203015D01*
X308308Y202934D01*
X308217Y202857D01*
X308123Y202782D01*
X308026Y202711D01*
X307927Y202642D01*
X307826Y202577D01*
X307724Y202516D01*
X307619Y202457D01*
X307512Y202402D01*
X307403Y202351D01*
X307293Y202303D01*
X307181Y202259D01*
X307068Y202219D01*
X306954Y202182D01*
X306839Y202149D01*
X306722Y202120D01*
X306605Y202094D01*
X306487Y202073D01*
X306368Y202055D01*
X306249Y202042D01*
X306129Y202032D01*
X306009Y202026D01*
X305889Y202024D01*
X305769Y202026D01*
X305649Y202032D01*
X305529Y202042D01*
X305410Y202055D01*
X305291Y202073D01*
X305173Y202094D01*
X305056Y202120D01*
X304939Y202149D01*
X304824Y202182D01*
X304710Y202219D01*
X304597Y202259D01*
X304485Y202303D01*
X304375Y202351D01*
X304266Y202402D01*
X304159Y202457D01*
X304055Y202516D01*
X303952Y202577D01*
X303851Y202642D01*
X303752Y202711D01*
X303655Y202782D01*
X303561Y202857D01*
X303470Y202934D01*
X303381Y203015D01*
X303295Y203099D01*
X303211Y203185D01*
X303130Y203274D01*
X303053Y203365D01*
X302978Y203459D01*
X302907Y203556D01*
X302838Y203655D01*
X302773Y203756D01*
X302712Y203859D01*
X302653Y203963D01*
X302598Y204070D01*
X302547Y204179D01*
X302499Y204289D01*
X302455Y204401D01*
X302415Y204514D01*
X302378Y204628D01*
X302345Y204743D01*
X302316Y204860D01*
X302290Y204977D01*
X302269Y205095D01*
X302251Y205214D01*
X302238Y205333D01*
X302228Y205453D01*
X302222Y205573D01*
X302220Y205693D01*
X302220Y209362D01*
X302220Y197286D02*
X299285Y197286D01*
X302220Y197286D02*
X302327Y197284D01*
X302434Y197278D01*
X302541Y197268D01*
X302647Y197255D01*
X302753Y197237D01*
X302858Y197216D01*
X302962Y197191D01*
X303066Y197162D01*
X303168Y197129D01*
X303268Y197092D01*
X303368Y197052D01*
X303466Y197008D01*
X303562Y196961D01*
X303656Y196910D01*
X303749Y196856D01*
X303839Y196799D01*
X303928Y196738D01*
X304014Y196674D01*
X304097Y196607D01*
X304179Y196537D01*
X304257Y196464D01*
X304333Y196388D01*
X304406Y196310D01*
X304476Y196228D01*
X304543Y196145D01*
X304607Y196059D01*
X304668Y195970D01*
X304725Y195880D01*
X304779Y195787D01*
X304830Y195693D01*
X304877Y195597D01*
X304921Y195499D01*
X304961Y195399D01*
X304998Y195299D01*
X305031Y195197D01*
X305060Y195093D01*
X305085Y194989D01*
X305106Y194884D01*
X305124Y194778D01*
X305137Y194672D01*
X305147Y194565D01*
X305153Y194458D01*
X305155Y194351D01*
X305153Y194244D01*
X305147Y194137D01*
X305137Y194030D01*
X305124Y193924D01*
X305106Y193818D01*
X305085Y193713D01*
X305060Y193609D01*
X305031Y193505D01*
X304998Y193403D01*
X304961Y193303D01*
X304921Y193203D01*
X304877Y193105D01*
X304830Y193009D01*
X304779Y192915D01*
X304725Y192822D01*
X304668Y192732D01*
X304607Y192643D01*
X304543Y192557D01*
X304476Y192474D01*
X304406Y192392D01*
X304333Y192314D01*
X304257Y192238D01*
X304179Y192165D01*
X304097Y192095D01*
X304014Y192028D01*
X303928Y191964D01*
X303839Y191903D01*
X303749Y191846D01*
X303656Y191792D01*
X303562Y191741D01*
X303466Y191694D01*
X303368Y191650D01*
X303268Y191610D01*
X303168Y191573D01*
X303066Y191540D01*
X302962Y191511D01*
X302858Y191486D01*
X302753Y191465D01*
X302647Y191447D01*
X302541Y191434D01*
X302434Y191424D01*
X302327Y191418D01*
X302220Y191416D01*
X299285Y191416D01*
X299178Y191418D01*
X299071Y191424D01*
X298964Y191434D01*
X298858Y191447D01*
X298752Y191465D01*
X298647Y191486D01*
X298543Y191511D01*
X298439Y191540D01*
X298337Y191573D01*
X298237Y191610D01*
X298137Y191650D01*
X298039Y191694D01*
X297943Y191741D01*
X297849Y191792D01*
X297756Y191846D01*
X297666Y191903D01*
X297577Y191964D01*
X297491Y192028D01*
X297408Y192095D01*
X297326Y192165D01*
X297248Y192238D01*
X297172Y192314D01*
X297099Y192392D01*
X297029Y192474D01*
X296962Y192557D01*
X296898Y192643D01*
X296837Y192732D01*
X296780Y192822D01*
X296726Y192915D01*
X296675Y193009D01*
X296628Y193105D01*
X296584Y193203D01*
X296544Y193303D01*
X296507Y193403D01*
X296474Y193505D01*
X296445Y193609D01*
X296420Y193713D01*
X296399Y193818D01*
X296381Y193924D01*
X296368Y194030D01*
X296358Y194137D01*
X296352Y194244D01*
X296350Y194351D01*
X296352Y194458D01*
X296358Y194565D01*
X296368Y194672D01*
X296381Y194778D01*
X296399Y194884D01*
X296420Y194989D01*
X296445Y195093D01*
X296474Y195197D01*
X296507Y195299D01*
X296544Y195399D01*
X296584Y195499D01*
X296628Y195597D01*
X296675Y195693D01*
X296726Y195787D01*
X296780Y195880D01*
X296837Y195970D01*
X296898Y196059D01*
X296962Y196145D01*
X297029Y196228D01*
X297099Y196310D01*
X297172Y196388D01*
X297248Y196464D01*
X297326Y196537D01*
X297408Y196607D01*
X297491Y196674D01*
X297577Y196738D01*
X297666Y196799D01*
X297756Y196856D01*
X297849Y196910D01*
X297943Y196961D01*
X298039Y197008D01*
X298137Y197052D01*
X298237Y197092D01*
X298337Y197129D01*
X298439Y197162D01*
X298543Y197191D01*
X298647Y197216D01*
X298752Y197237D01*
X298858Y197255D01*
X298964Y197268D01*
X299071Y197278D01*
X299178Y197284D01*
X299285Y197286D01*
X305155Y186379D02*
X296350Y184178D01*
X302220Y181976D01*
X296350Y179775D01*
X305155Y177574D01*
X296350Y170335D02*
X296350Y166666D01*
X296350Y170335D02*
X296352Y170426D01*
X296358Y170517D01*
X296367Y170607D01*
X296380Y170697D01*
X296397Y170787D01*
X296417Y170875D01*
X296442Y170963D01*
X296469Y171050D01*
X296501Y171135D01*
X296535Y171219D01*
X296574Y171302D01*
X296615Y171383D01*
X296660Y171462D01*
X296708Y171539D01*
X296760Y171614D01*
X296814Y171687D01*
X296871Y171758D01*
X296932Y171826D01*
X296995Y171891D01*
X297060Y171954D01*
X297128Y172015D01*
X297199Y172072D01*
X297272Y172126D01*
X297347Y172178D01*
X297424Y172226D01*
X297503Y172271D01*
X297584Y172312D01*
X297667Y172351D01*
X297751Y172385D01*
X297836Y172417D01*
X297923Y172444D01*
X298011Y172469D01*
X298099Y172489D01*
X298189Y172506D01*
X298279Y172519D01*
X298369Y172528D01*
X298460Y172534D01*
X298551Y172536D01*
X298551Y172537D02*
X302220Y172537D01*
X302220Y172536D02*
X302327Y172534D01*
X302434Y172528D01*
X302541Y172518D01*
X302647Y172505D01*
X302753Y172487D01*
X302858Y172466D01*
X302962Y172441D01*
X303066Y172412D01*
X303168Y172379D01*
X303268Y172342D01*
X303368Y172302D01*
X303466Y172258D01*
X303562Y172211D01*
X303656Y172160D01*
X303749Y172106D01*
X303839Y172049D01*
X303928Y171988D01*
X304014Y171924D01*
X304097Y171857D01*
X304179Y171787D01*
X304257Y171714D01*
X304333Y171638D01*
X304406Y171560D01*
X304476Y171478D01*
X304543Y171395D01*
X304607Y171309D01*
X304668Y171220D01*
X304725Y171130D01*
X304779Y171037D01*
X304830Y170943D01*
X304877Y170847D01*
X304921Y170749D01*
X304961Y170649D01*
X304998Y170549D01*
X305031Y170447D01*
X305060Y170343D01*
X305085Y170239D01*
X305106Y170134D01*
X305124Y170028D01*
X305137Y169922D01*
X305147Y169815D01*
X305153Y169708D01*
X305155Y169601D01*
X305153Y169494D01*
X305147Y169387D01*
X305137Y169280D01*
X305124Y169174D01*
X305106Y169068D01*
X305085Y168963D01*
X305060Y168859D01*
X305031Y168755D01*
X304998Y168653D01*
X304961Y168553D01*
X304921Y168453D01*
X304877Y168355D01*
X304830Y168259D01*
X304779Y168165D01*
X304725Y168072D01*
X304668Y167982D01*
X304607Y167893D01*
X304543Y167807D01*
X304476Y167724D01*
X304406Y167642D01*
X304333Y167564D01*
X304257Y167488D01*
X304179Y167415D01*
X304097Y167345D01*
X304014Y167278D01*
X303928Y167214D01*
X303839Y167153D01*
X303749Y167096D01*
X303656Y167042D01*
X303562Y166991D01*
X303466Y166944D01*
X303368Y166900D01*
X303268Y166860D01*
X303168Y166823D01*
X303066Y166790D01*
X302962Y166761D01*
X302858Y166736D01*
X302753Y166715D01*
X302647Y166697D01*
X302541Y166684D01*
X302434Y166674D01*
X302327Y166668D01*
X302220Y166666D01*
X300753Y166666D01*
X300753Y172537D01*
X305155Y160945D02*
X296350Y160945D01*
X305155Y160945D02*
X305155Y156542D01*
X303688Y156542D01*
X303688Y151755D02*
X303688Y148086D01*
X303686Y147966D01*
X303680Y147846D01*
X303670Y147726D01*
X303657Y147607D01*
X303639Y147488D01*
X303618Y147370D01*
X303592Y147253D01*
X303563Y147136D01*
X303530Y147021D01*
X303493Y146907D01*
X303453Y146794D01*
X303409Y146682D01*
X303361Y146572D01*
X303310Y146463D01*
X303255Y146356D01*
X303196Y146252D01*
X303135Y146149D01*
X303070Y146048D01*
X303001Y145949D01*
X302930Y145852D01*
X302855Y145758D01*
X302778Y145667D01*
X302697Y145578D01*
X302613Y145492D01*
X302527Y145408D01*
X302438Y145327D01*
X302347Y145250D01*
X302253Y145175D01*
X302156Y145104D01*
X302057Y145035D01*
X301956Y144970D01*
X301854Y144909D01*
X301749Y144850D01*
X301642Y144795D01*
X301533Y144744D01*
X301423Y144696D01*
X301311Y144652D01*
X301198Y144612D01*
X301084Y144575D01*
X300969Y144542D01*
X300852Y144513D01*
X300735Y144487D01*
X300617Y144466D01*
X300498Y144448D01*
X300379Y144435D01*
X300259Y144425D01*
X300139Y144419D01*
X300019Y144417D01*
X299899Y144419D01*
X299779Y144425D01*
X299659Y144435D01*
X299540Y144448D01*
X299421Y144466D01*
X299303Y144487D01*
X299186Y144513D01*
X299069Y144542D01*
X298954Y144575D01*
X298840Y144612D01*
X298727Y144652D01*
X298615Y144696D01*
X298505Y144744D01*
X298396Y144795D01*
X298289Y144850D01*
X298185Y144909D01*
X298082Y144970D01*
X297981Y145035D01*
X297882Y145104D01*
X297785Y145175D01*
X297691Y145250D01*
X297600Y145327D01*
X297511Y145408D01*
X297425Y145492D01*
X297341Y145578D01*
X297260Y145667D01*
X297183Y145758D01*
X297108Y145852D01*
X297037Y145949D01*
X296968Y146048D01*
X296903Y146149D01*
X296842Y146252D01*
X296783Y146356D01*
X296728Y146463D01*
X296677Y146572D01*
X296629Y146682D01*
X296585Y146794D01*
X296545Y146907D01*
X296508Y147021D01*
X296475Y147136D01*
X296446Y147253D01*
X296420Y147370D01*
X296399Y147488D01*
X296381Y147607D01*
X296368Y147726D01*
X296358Y147846D01*
X296352Y147966D01*
X296350Y148086D01*
X296350Y151755D01*
X309558Y151755D01*
X309558Y148086D01*
X309556Y147979D01*
X309550Y147872D01*
X309540Y147765D01*
X309527Y147659D01*
X309509Y147553D01*
X309488Y147448D01*
X309463Y147344D01*
X309434Y147240D01*
X309401Y147138D01*
X309364Y147038D01*
X309324Y146938D01*
X309280Y146840D01*
X309233Y146744D01*
X309182Y146650D01*
X309128Y146557D01*
X309071Y146467D01*
X309010Y146378D01*
X308946Y146292D01*
X308879Y146209D01*
X308809Y146127D01*
X308736Y146049D01*
X308660Y145973D01*
X308582Y145900D01*
X308500Y145830D01*
X308417Y145763D01*
X308331Y145699D01*
X308242Y145638D01*
X308152Y145581D01*
X308059Y145527D01*
X307965Y145476D01*
X307869Y145429D01*
X307771Y145385D01*
X307671Y145345D01*
X307571Y145308D01*
X307469Y145275D01*
X307365Y145246D01*
X307261Y145221D01*
X307156Y145200D01*
X307050Y145182D01*
X306944Y145169D01*
X306837Y145159D01*
X306730Y145153D01*
X306623Y145151D01*
X306516Y145153D01*
X306409Y145159D01*
X306302Y145169D01*
X306196Y145182D01*
X306090Y145200D01*
X305985Y145221D01*
X305881Y145246D01*
X305777Y145275D01*
X305675Y145308D01*
X305575Y145345D01*
X305475Y145385D01*
X305377Y145429D01*
X305281Y145476D01*
X305187Y145527D01*
X305094Y145581D01*
X305004Y145638D01*
X304915Y145699D01*
X304829Y145763D01*
X304746Y145830D01*
X304664Y145900D01*
X304586Y145973D01*
X304510Y146049D01*
X304437Y146127D01*
X304367Y146209D01*
X304300Y146292D01*
X304236Y146378D01*
X304175Y146467D01*
X304118Y146557D01*
X304064Y146650D01*
X304013Y146744D01*
X303966Y146840D01*
X303922Y146938D01*
X303882Y147038D01*
X303845Y147138D01*
X303812Y147240D01*
X303783Y147344D01*
X303758Y147448D01*
X303737Y147553D01*
X303719Y147659D01*
X303706Y147765D01*
X303696Y147872D01*
X303690Y147979D01*
X303688Y148086D01*
X302220Y139679D02*
X299285Y139679D01*
X302220Y139679D02*
X302327Y139677D01*
X302434Y139671D01*
X302541Y139661D01*
X302647Y139648D01*
X302753Y139630D01*
X302858Y139609D01*
X302962Y139584D01*
X303066Y139555D01*
X303168Y139522D01*
X303268Y139485D01*
X303368Y139445D01*
X303466Y139401D01*
X303562Y139354D01*
X303656Y139303D01*
X303749Y139249D01*
X303839Y139192D01*
X303928Y139131D01*
X304014Y139067D01*
X304097Y139000D01*
X304179Y138930D01*
X304257Y138857D01*
X304333Y138781D01*
X304406Y138703D01*
X304476Y138621D01*
X304543Y138538D01*
X304607Y138452D01*
X304668Y138363D01*
X304725Y138273D01*
X304779Y138180D01*
X304830Y138086D01*
X304877Y137990D01*
X304921Y137892D01*
X304961Y137792D01*
X304998Y137692D01*
X305031Y137590D01*
X305060Y137486D01*
X305085Y137382D01*
X305106Y137277D01*
X305124Y137171D01*
X305137Y137065D01*
X305147Y136958D01*
X305153Y136851D01*
X305155Y136744D01*
X305153Y136637D01*
X305147Y136530D01*
X305137Y136423D01*
X305124Y136317D01*
X305106Y136211D01*
X305085Y136106D01*
X305060Y136002D01*
X305031Y135898D01*
X304998Y135796D01*
X304961Y135696D01*
X304921Y135596D01*
X304877Y135498D01*
X304830Y135402D01*
X304779Y135308D01*
X304725Y135215D01*
X304668Y135125D01*
X304607Y135036D01*
X304543Y134950D01*
X304476Y134867D01*
X304406Y134785D01*
X304333Y134707D01*
X304257Y134631D01*
X304179Y134558D01*
X304097Y134488D01*
X304014Y134421D01*
X303928Y134357D01*
X303839Y134296D01*
X303749Y134239D01*
X303656Y134185D01*
X303562Y134134D01*
X303466Y134087D01*
X303368Y134043D01*
X303268Y134003D01*
X303168Y133966D01*
X303066Y133933D01*
X302962Y133904D01*
X302858Y133879D01*
X302753Y133858D01*
X302647Y133840D01*
X302541Y133827D01*
X302434Y133817D01*
X302327Y133811D01*
X302220Y133809D01*
X299285Y133809D01*
X299178Y133811D01*
X299071Y133817D01*
X298964Y133827D01*
X298858Y133840D01*
X298752Y133858D01*
X298647Y133879D01*
X298543Y133904D01*
X298439Y133933D01*
X298337Y133966D01*
X298237Y134003D01*
X298137Y134043D01*
X298039Y134087D01*
X297943Y134134D01*
X297849Y134185D01*
X297756Y134239D01*
X297666Y134296D01*
X297577Y134357D01*
X297491Y134421D01*
X297408Y134488D01*
X297326Y134558D01*
X297248Y134631D01*
X297172Y134707D01*
X297099Y134785D01*
X297029Y134867D01*
X296962Y134950D01*
X296898Y135036D01*
X296837Y135125D01*
X296780Y135215D01*
X296726Y135308D01*
X296675Y135402D01*
X296628Y135498D01*
X296584Y135596D01*
X296544Y135696D01*
X296507Y135796D01*
X296474Y135898D01*
X296445Y136002D01*
X296420Y136106D01*
X296399Y136211D01*
X296381Y136317D01*
X296368Y136423D01*
X296358Y136530D01*
X296352Y136637D01*
X296350Y136744D01*
X296352Y136851D01*
X296358Y136958D01*
X296368Y137065D01*
X296381Y137171D01*
X296399Y137277D01*
X296420Y137382D01*
X296445Y137486D01*
X296474Y137590D01*
X296507Y137692D01*
X296544Y137792D01*
X296584Y137892D01*
X296628Y137990D01*
X296675Y138086D01*
X296726Y138180D01*
X296780Y138273D01*
X296837Y138363D01*
X296898Y138452D01*
X296962Y138538D01*
X297029Y138621D01*
X297099Y138703D01*
X297172Y138781D01*
X297248Y138857D01*
X297326Y138930D01*
X297408Y139000D01*
X297491Y139067D01*
X297577Y139131D01*
X297666Y139192D01*
X297756Y139249D01*
X297849Y139303D01*
X297943Y139354D01*
X298039Y139401D01*
X298137Y139445D01*
X298237Y139485D01*
X298337Y139522D01*
X298439Y139555D01*
X298543Y139584D01*
X298647Y139609D01*
X298752Y139630D01*
X298858Y139648D01*
X298964Y139661D01*
X299071Y139671D01*
X299178Y139677D01*
X299285Y139679D01*
X301486Y126079D02*
X301486Y122777D01*
X301486Y126079D02*
X301484Y126179D01*
X301478Y126278D01*
X301469Y126377D01*
X301455Y126476D01*
X301438Y126574D01*
X301417Y126671D01*
X301392Y126768D01*
X301363Y126863D01*
X301331Y126957D01*
X301295Y127050D01*
X301256Y127142D01*
X301213Y127232D01*
X301166Y127320D01*
X301117Y127406D01*
X301064Y127490D01*
X301007Y127572D01*
X300948Y127652D01*
X300885Y127730D01*
X300820Y127805D01*
X300751Y127877D01*
X300680Y127947D01*
X300607Y128014D01*
X300530Y128078D01*
X300452Y128139D01*
X300370Y128197D01*
X300287Y128251D01*
X300202Y128303D01*
X300115Y128351D01*
X300026Y128396D01*
X299935Y128437D01*
X299843Y128475D01*
X299749Y128509D01*
X299655Y128539D01*
X299559Y128566D01*
X299462Y128589D01*
X299364Y128608D01*
X299266Y128623D01*
X299167Y128635D01*
X299067Y128643D01*
X298968Y128647D01*
X298868Y128647D01*
X298769Y128643D01*
X298669Y128635D01*
X298570Y128623D01*
X298472Y128608D01*
X298374Y128589D01*
X298277Y128566D01*
X298181Y128539D01*
X298087Y128509D01*
X297993Y128475D01*
X297901Y128437D01*
X297810Y128396D01*
X297721Y128351D01*
X297634Y128303D01*
X297549Y128251D01*
X297466Y128197D01*
X297384Y128139D01*
X297306Y128078D01*
X297229Y128014D01*
X297156Y127947D01*
X297085Y127877D01*
X297016Y127805D01*
X296951Y127730D01*
X296888Y127652D01*
X296829Y127572D01*
X296772Y127490D01*
X296719Y127406D01*
X296670Y127320D01*
X296623Y127232D01*
X296580Y127142D01*
X296541Y127050D01*
X296505Y126957D01*
X296473Y126863D01*
X296444Y126768D01*
X296419Y126671D01*
X296398Y126574D01*
X296381Y126476D01*
X296367Y126377D01*
X296358Y126278D01*
X296352Y126179D01*
X296350Y126079D01*
X296350Y122777D01*
X302954Y122777D01*
X303045Y122779D01*
X303136Y122785D01*
X303226Y122794D01*
X303316Y122807D01*
X303406Y122824D01*
X303494Y122844D01*
X303582Y122869D01*
X303669Y122896D01*
X303754Y122928D01*
X303838Y122962D01*
X303921Y123001D01*
X304002Y123042D01*
X304081Y123087D01*
X304158Y123135D01*
X304233Y123187D01*
X304306Y123241D01*
X304377Y123298D01*
X304445Y123359D01*
X304510Y123422D01*
X304573Y123487D01*
X304634Y123556D01*
X304691Y123626D01*
X304745Y123699D01*
X304797Y123774D01*
X304845Y123851D01*
X304890Y123930D01*
X304931Y124011D01*
X304970Y124094D01*
X305004Y124178D01*
X305036Y124263D01*
X305064Y124350D01*
X305088Y124438D01*
X305108Y124526D01*
X305125Y124616D01*
X305138Y124706D01*
X305147Y124796D01*
X305153Y124887D01*
X305155Y124978D01*
X305155Y127913D01*
X305155Y116566D02*
X296350Y116566D01*
X305155Y116566D02*
X305155Y112163D01*
X303688Y112163D01*
X309558Y102294D02*
X296350Y102294D01*
X296350Y105963D01*
X296352Y106054D01*
X296358Y106145D01*
X296367Y106235D01*
X296380Y106325D01*
X296397Y106415D01*
X296417Y106503D01*
X296442Y106591D01*
X296469Y106678D01*
X296501Y106763D01*
X296535Y106847D01*
X296574Y106930D01*
X296615Y107011D01*
X296660Y107090D01*
X296708Y107167D01*
X296760Y107242D01*
X296814Y107315D01*
X296871Y107386D01*
X296932Y107454D01*
X296995Y107519D01*
X297060Y107582D01*
X297128Y107643D01*
X297199Y107700D01*
X297272Y107754D01*
X297347Y107806D01*
X297424Y107854D01*
X297503Y107899D01*
X297584Y107940D01*
X297667Y107979D01*
X297751Y108013D01*
X297836Y108045D01*
X297923Y108072D01*
X298011Y108097D01*
X298099Y108117D01*
X298189Y108134D01*
X298279Y108147D01*
X298369Y108156D01*
X298460Y108162D01*
X298551Y108164D01*
X302954Y108164D01*
X303045Y108162D01*
X303136Y108156D01*
X303226Y108147D01*
X303316Y108134D01*
X303406Y108117D01*
X303494Y108097D01*
X303582Y108072D01*
X303669Y108045D01*
X303754Y108013D01*
X303838Y107979D01*
X303921Y107940D01*
X304002Y107899D01*
X304081Y107854D01*
X304158Y107806D01*
X304233Y107754D01*
X304306Y107700D01*
X304377Y107643D01*
X304445Y107582D01*
X304510Y107519D01*
X304573Y107454D01*
X304634Y107386D01*
X304691Y107315D01*
X304745Y107242D01*
X304797Y107167D01*
X304845Y107090D01*
X304890Y107011D01*
X304931Y106930D01*
X304970Y106847D01*
X305004Y106763D01*
X305036Y106678D01*
X305063Y106591D01*
X305088Y106503D01*
X305108Y106415D01*
X305125Y106325D01*
X305138Y106235D01*
X305147Y106145D01*
X305153Y106054D01*
X305155Y105963D01*
X305155Y102294D01*
D11*
X13600Y206200D02*
X13600Y266200D01*
X13600Y206200D02*
X183600Y206200D01*
X183600Y266200D01*
X13600Y266200D01*
X110700Y337400D02*
X110700Y417400D01*
X260700Y417400D01*
X260700Y337400D01*
X110700Y337400D01*
X108900Y92400D02*
X108900Y12400D01*
X108900Y92400D02*
X258900Y92400D01*
X258900Y12400D01*
X108900Y12400D01*
X13500Y289400D02*
X13500Y369400D01*
X93500Y369400D01*
X93500Y289400D01*
X13500Y289400D01*
D12*
X277374Y229616D02*
X282624Y229616D01*
X291874Y229616D01*
X322374Y229616D01*
X277374Y229616D02*
X277374Y254116D01*
X277374Y264116D01*
X277374Y288616D01*
X322374Y288616D02*
X322374Y229616D01*
X282624Y288616D02*
X277374Y288616D01*
X282624Y288616D02*
X291874Y288616D01*
X322374Y288616D01*
X291874Y234866D02*
X291874Y229616D01*
X291874Y234866D02*
X317124Y234866D01*
X317124Y283366D01*
X291874Y283366D01*
X291874Y288616D01*
X282624Y254116D02*
X282624Y229616D01*
X282624Y254116D02*
X277374Y254116D01*
X277374Y264116D02*
X282624Y264116D01*
X282624Y288616D01*
X220996Y209616D02*
X215746Y209616D01*
X220996Y209616D02*
X230246Y209616D01*
X260746Y209616D01*
X215746Y209616D02*
X215746Y234116D01*
X215746Y264116D01*
X215746Y288616D01*
X260746Y288616D02*
X260746Y209616D01*
X220996Y288616D02*
X215746Y288616D01*
X220996Y288616D02*
X230246Y288616D01*
X260746Y288616D01*
X230246Y214866D02*
X230246Y209616D01*
X230246Y214866D02*
X255496Y214866D01*
X255496Y283366D01*
X230246Y283366D01*
X230246Y288616D01*
X220996Y234116D02*
X220996Y209616D01*
X220996Y234116D02*
X215746Y234116D01*
X215746Y264116D02*
X220996Y264116D01*
X220996Y288616D01*
X120500Y321750D02*
X120500Y327000D01*
X120500Y321750D02*
X120500Y312500D01*
X120500Y282000D01*
X120500Y327000D02*
X145000Y327000D01*
X155000Y327000D01*
X179500Y327000D01*
X179500Y282000D02*
X120500Y282000D01*
X179500Y321750D02*
X179500Y327000D01*
X179500Y321750D02*
X179500Y312500D01*
X179500Y282000D01*
X125750Y312500D02*
X120500Y312500D01*
X125750Y312500D02*
X125750Y287250D01*
X174250Y287250D01*
X174250Y312500D01*
X179500Y312500D01*
X145000Y321750D02*
X120500Y321750D01*
X145000Y321750D02*
X145000Y327000D01*
X155000Y327000D02*
X155000Y321750D01*
X179500Y321750D01*
M02*
