G04 EAGLE Gerber RS-274X export*
G75*
%MOMM*%
%FSLAX34Y34*%
%LPD*%
%INBottom Silkscreen*%
%IPPOS*%
%AMOC8*
5,1,8,0,0,1.08239X$1,22.5*%
G01*
%ADD10C,0.101600*%


D10*
X269188Y312545D02*
X280872Y312545D01*
X280872Y315790D01*
X280870Y315903D01*
X280864Y316016D01*
X280854Y316129D01*
X280840Y316242D01*
X280823Y316354D01*
X280801Y316465D01*
X280776Y316575D01*
X280746Y316685D01*
X280713Y316793D01*
X280676Y316900D01*
X280636Y317006D01*
X280591Y317110D01*
X280543Y317213D01*
X280492Y317314D01*
X280437Y317413D01*
X280379Y317510D01*
X280317Y317605D01*
X280252Y317698D01*
X280184Y317788D01*
X280113Y317876D01*
X280038Y317962D01*
X279961Y318045D01*
X279881Y318125D01*
X279798Y318202D01*
X279712Y318277D01*
X279624Y318348D01*
X279534Y318416D01*
X279441Y318481D01*
X279346Y318543D01*
X279249Y318601D01*
X279150Y318656D01*
X279049Y318707D01*
X278946Y318755D01*
X278842Y318800D01*
X278736Y318840D01*
X278629Y318877D01*
X278521Y318910D01*
X278411Y318940D01*
X278301Y318965D01*
X278190Y318987D01*
X278078Y319004D01*
X277965Y319018D01*
X277852Y319028D01*
X277739Y319034D01*
X277626Y319036D01*
X277513Y319034D01*
X277400Y319028D01*
X277287Y319018D01*
X277174Y319004D01*
X277062Y318987D01*
X276951Y318965D01*
X276841Y318940D01*
X276731Y318910D01*
X276623Y318877D01*
X276516Y318840D01*
X276410Y318800D01*
X276306Y318755D01*
X276203Y318707D01*
X276102Y318656D01*
X276003Y318601D01*
X275906Y318543D01*
X275811Y318481D01*
X275718Y318416D01*
X275628Y318348D01*
X275540Y318277D01*
X275454Y318202D01*
X275371Y318125D01*
X275291Y318045D01*
X275214Y317962D01*
X275139Y317876D01*
X275068Y317788D01*
X275000Y317698D01*
X274935Y317605D01*
X274873Y317510D01*
X274815Y317413D01*
X274760Y317314D01*
X274709Y317213D01*
X274661Y317110D01*
X274616Y317006D01*
X274576Y316900D01*
X274539Y316793D01*
X274506Y316685D01*
X274476Y316575D01*
X274451Y316465D01*
X274429Y316354D01*
X274412Y316242D01*
X274398Y316129D01*
X274388Y316016D01*
X274382Y315903D01*
X274380Y315790D01*
X274381Y315790D02*
X274381Y312545D01*
X274381Y316439D02*
X269188Y319036D01*
X278276Y323901D02*
X280872Y327146D01*
X269188Y327146D01*
X269188Y323901D02*
X269188Y330392D01*
M02*
