G04 EAGLE Gerber RS-274X export*
G75*
%MOMM*%
%FSLAX34Y34*%
%LPD*%
%INBottom Copper*%
%IPPOS*%
%AMOC8*
5,1,8,0,0,1.08239X$1,22.5*%
G01*
%ADD10R,1.600000X1.300000*%
%ADD11R,1.208000X1.208000*%
%ADD12C,1.208000*%
%ADD13R,6.500000X6.500000*%
%ADD14C,6.500000*%
%ADD15R,2.550000X2.550000*%
%ADD16C,2.550000*%
%ADD17R,1.308000X1.308000*%
%ADD18C,1.308000*%
%ADD19R,7.500000X7.500000*%
%ADD20C,2.540000*%
%ADD21C,3.500000*%
%ADD22C,1.270000*%
%ADD23C,0.609600*%
%ADD24C,0.756400*%
%ADD25C,4.000000*%
%ADD26C,5.500000*%

G36*
X106429Y10173D02*
X106429Y10173D01*
X106625Y10176D01*
X106747Y10193D01*
X106869Y10201D01*
X107062Y10237D01*
X107256Y10265D01*
X107374Y10297D01*
X107495Y10320D01*
X107681Y10380D01*
X107871Y10432D01*
X107984Y10479D01*
X108101Y10517D01*
X108278Y10600D01*
X108460Y10675D01*
X108567Y10735D01*
X108678Y10788D01*
X108843Y10893D01*
X109014Y10989D01*
X109112Y11063D01*
X109216Y11129D01*
X109367Y11253D01*
X109524Y11371D01*
X109612Y11456D01*
X109707Y11534D01*
X109842Y11677D01*
X109982Y11813D01*
X110059Y11909D01*
X110144Y11998D01*
X110259Y12157D01*
X110382Y12309D01*
X110446Y12414D01*
X110519Y12513D01*
X110613Y12685D01*
X110716Y12852D01*
X110767Y12964D01*
X110827Y13071D01*
X110899Y13253D01*
X110980Y13432D01*
X111016Y13549D01*
X111062Y13664D01*
X111111Y13853D01*
X111169Y14040D01*
X111190Y14161D01*
X111221Y14280D01*
X111246Y14475D01*
X111280Y14668D01*
X111286Y14790D01*
X111302Y14912D01*
X111302Y15109D01*
X111312Y15304D01*
X111303Y15426D01*
X111303Y15550D01*
X111279Y15744D01*
X111264Y15939D01*
X111240Y16060D01*
X111225Y16182D01*
X111176Y16372D01*
X111137Y16563D01*
X111099Y16677D01*
X111067Y16799D01*
X110989Y16998D01*
X110926Y17184D01*
X110303Y18687D01*
X110303Y86113D01*
X111231Y88354D01*
X112946Y90069D01*
X115187Y90997D01*
X118824Y90997D01*
X118979Y91006D01*
X119134Y91006D01*
X119296Y91026D01*
X119460Y91037D01*
X119612Y91066D01*
X119766Y91085D01*
X119925Y91125D01*
X120086Y91156D01*
X120233Y91204D01*
X120383Y91242D01*
X120536Y91302D01*
X120692Y91353D01*
X120832Y91418D01*
X120976Y91475D01*
X121120Y91554D01*
X121268Y91624D01*
X121399Y91706D01*
X121535Y91781D01*
X121668Y91877D01*
X121807Y91965D01*
X121926Y92063D01*
X122052Y92154D01*
X122171Y92266D01*
X122298Y92370D01*
X122404Y92483D01*
X122517Y92589D01*
X122622Y92715D01*
X122734Y92834D01*
X122826Y92960D01*
X122925Y93079D01*
X123013Y93217D01*
X123109Y93349D01*
X123184Y93485D01*
X123268Y93616D01*
X123338Y93764D01*
X123417Y93907D01*
X123474Y94051D01*
X123541Y94191D01*
X123592Y94347D01*
X123652Y94500D01*
X123691Y94650D01*
X123740Y94797D01*
X123771Y94958D01*
X123812Y95116D01*
X123831Y95270D01*
X123861Y95422D01*
X123871Y95581D01*
X123893Y95748D01*
X123893Y95917D01*
X123903Y96076D01*
X123903Y123436D01*
X125682Y130073D01*
X129117Y136024D01*
X143316Y150222D01*
X143364Y150277D01*
X143417Y150327D01*
X143575Y150516D01*
X143737Y150700D01*
X143778Y150760D01*
X143825Y150816D01*
X143957Y151024D01*
X144095Y151227D01*
X144128Y151292D01*
X144168Y151353D01*
X144273Y151575D01*
X144385Y151794D01*
X144409Y151863D01*
X144441Y151929D01*
X144517Y152163D01*
X144601Y152394D01*
X144617Y152465D01*
X144640Y152534D01*
X144686Y152775D01*
X144740Y153015D01*
X144747Y153088D01*
X144761Y153160D01*
X144776Y153391D01*
X144801Y153650D01*
X144798Y153733D01*
X144803Y153814D01*
X144803Y177123D01*
X145731Y179364D01*
X147446Y181079D01*
X149687Y182007D01*
X227113Y182007D01*
X229354Y181079D01*
X231069Y179364D01*
X231997Y177123D01*
X231997Y99697D01*
X231069Y97456D01*
X229334Y95722D01*
X229219Y95674D01*
X229088Y95599D01*
X228952Y95532D01*
X228812Y95440D01*
X228667Y95357D01*
X228546Y95265D01*
X228419Y95182D01*
X228292Y95073D01*
X228158Y94973D01*
X228050Y94867D01*
X227935Y94769D01*
X227822Y94645D01*
X227702Y94528D01*
X227608Y94409D01*
X227506Y94298D01*
X227409Y94161D01*
X227305Y94030D01*
X227226Y93900D01*
X227139Y93777D01*
X227061Y93629D01*
X226973Y93486D01*
X226911Y93347D01*
X226841Y93214D01*
X226781Y93057D01*
X226713Y92904D01*
X226668Y92760D01*
X226615Y92618D01*
X226575Y92455D01*
X226527Y92295D01*
X226501Y92146D01*
X226465Y91999D01*
X226447Y91832D01*
X226418Y91667D01*
X226411Y91516D01*
X226395Y91365D01*
X226397Y91198D01*
X226389Y91031D01*
X226402Y90880D01*
X226404Y90728D01*
X226427Y90563D01*
X226441Y90396D01*
X226472Y90247D01*
X226493Y90097D01*
X226537Y89936D01*
X226571Y89772D01*
X226620Y89628D01*
X226660Y89483D01*
X226724Y89328D01*
X226778Y89169D01*
X226845Y89034D01*
X226902Y88893D01*
X226985Y88748D01*
X227059Y88598D01*
X227142Y88471D01*
X227217Y88339D01*
X227317Y88205D01*
X227409Y88065D01*
X227508Y87950D01*
X227599Y87829D01*
X227715Y87709D01*
X227824Y87581D01*
X227936Y87479D01*
X228041Y87371D01*
X228171Y87266D01*
X228295Y87153D01*
X228420Y87066D01*
X228537Y86971D01*
X228680Y86883D01*
X228817Y86787D01*
X228951Y86716D01*
X229080Y86637D01*
X229232Y86567D01*
X229380Y86489D01*
X229518Y86437D01*
X229660Y86373D01*
X229834Y86319D01*
X229994Y86259D01*
X232719Y85432D01*
X235900Y84115D01*
X238936Y82492D01*
X241799Y80579D01*
X244460Y78395D01*
X246895Y75960D01*
X249079Y73299D01*
X250992Y70436D01*
X252615Y67400D01*
X253932Y64219D01*
X254436Y62559D01*
X225980Y62559D01*
X225826Y62549D01*
X225671Y62550D01*
X225508Y62530D01*
X225344Y62519D01*
X225192Y62490D01*
X225038Y62471D01*
X224879Y62431D01*
X224718Y62400D01*
X224571Y62352D01*
X224421Y62314D01*
X224268Y62254D01*
X224112Y62203D01*
X223972Y62137D01*
X223828Y62081D01*
X223684Y62002D01*
X223536Y61932D01*
X223405Y61850D01*
X223269Y61775D01*
X223136Y61679D01*
X222998Y61591D01*
X222878Y61493D01*
X222753Y61402D01*
X222633Y61290D01*
X222506Y61186D01*
X222400Y61073D01*
X222287Y60967D01*
X222182Y60841D01*
X222070Y60721D01*
X221978Y60596D01*
X221879Y60477D01*
X221791Y60339D01*
X221695Y60206D01*
X221620Y60071D01*
X221537Y59940D01*
X221466Y59792D01*
X221387Y59648D01*
X221330Y59505D01*
X221263Y59365D01*
X221212Y59209D01*
X221152Y59056D01*
X221113Y58906D01*
X221065Y58759D01*
X221033Y58598D01*
X220992Y58440D01*
X220973Y58286D01*
X220943Y58134D01*
X220933Y57975D01*
X220911Y57808D01*
X220911Y57639D01*
X220901Y57480D01*
X220901Y47320D01*
X220911Y47166D01*
X220910Y47010D01*
X220931Y46848D01*
X220941Y46684D01*
X220970Y46532D01*
X220989Y46378D01*
X221029Y46219D01*
X221060Y46058D01*
X221108Y45911D01*
X221146Y45761D01*
X221206Y45608D01*
X221257Y45452D01*
X221323Y45312D01*
X221379Y45168D01*
X221458Y45024D01*
X221528Y44876D01*
X221611Y44745D01*
X221685Y44609D01*
X221781Y44476D01*
X221869Y44337D01*
X221967Y44218D01*
X222058Y44092D01*
X222170Y43973D01*
X222275Y43846D01*
X222387Y43740D01*
X222493Y43627D01*
X222619Y43522D01*
X222739Y43410D01*
X222864Y43318D01*
X222983Y43219D01*
X223121Y43131D01*
X223254Y43035D01*
X223389Y42960D01*
X223520Y42876D01*
X223668Y42806D01*
X223812Y42727D01*
X223955Y42670D01*
X224096Y42603D01*
X224251Y42552D01*
X224404Y42492D01*
X224554Y42453D01*
X224701Y42405D01*
X224862Y42373D01*
X225021Y42332D01*
X225174Y42313D01*
X225326Y42283D01*
X225485Y42273D01*
X225653Y42251D01*
X225821Y42251D01*
X225980Y42241D01*
X254436Y42241D01*
X253932Y40581D01*
X252615Y37400D01*
X250992Y34364D01*
X249079Y31501D01*
X246895Y28840D01*
X244460Y26405D01*
X241799Y24221D01*
X238936Y22308D01*
X235900Y20685D01*
X234083Y19933D01*
X233833Y19811D01*
X233582Y19692D01*
X233547Y19670D01*
X233510Y19652D01*
X233278Y19500D01*
X233044Y19351D01*
X233012Y19325D01*
X232978Y19303D01*
X232767Y19122D01*
X232552Y18946D01*
X232524Y18916D01*
X232493Y18889D01*
X232306Y18684D01*
X232116Y18482D01*
X232092Y18448D01*
X232064Y18418D01*
X231905Y18191D01*
X231741Y17966D01*
X231721Y17931D01*
X231697Y17897D01*
X231567Y17652D01*
X231433Y17409D01*
X231418Y17370D01*
X231399Y17334D01*
X231300Y17074D01*
X231198Y16816D01*
X231188Y16777D01*
X231173Y16738D01*
X231108Y16468D01*
X231039Y16200D01*
X231033Y16159D01*
X231024Y16119D01*
X230993Y15844D01*
X230958Y15568D01*
X230958Y15527D01*
X230953Y15486D01*
X230957Y15208D01*
X230956Y14930D01*
X230962Y14890D01*
X230962Y14849D01*
X231001Y14574D01*
X231035Y14298D01*
X231045Y14258D01*
X231051Y14218D01*
X231124Y13950D01*
X231192Y13681D01*
X231207Y13643D01*
X231218Y13603D01*
X231324Y13347D01*
X231426Y13088D01*
X231445Y13052D01*
X231461Y13014D01*
X231598Y12773D01*
X231731Y12529D01*
X231755Y12496D01*
X231775Y12460D01*
X231942Y12237D01*
X232104Y12012D01*
X232132Y11982D01*
X232157Y11950D01*
X232350Y11749D01*
X232539Y11547D01*
X232571Y11521D01*
X232599Y11491D01*
X232816Y11317D01*
X233029Y11139D01*
X233064Y11117D01*
X233096Y11092D01*
X233332Y10946D01*
X233566Y10796D01*
X233603Y10779D01*
X233638Y10757D01*
X233890Y10643D01*
X234142Y10523D01*
X234181Y10510D01*
X234218Y10494D01*
X234484Y10411D01*
X234747Y10324D01*
X234787Y10317D01*
X234826Y10304D01*
X235100Y10256D01*
X235372Y10203D01*
X235413Y10200D01*
X235454Y10193D01*
X235775Y10177D01*
X236026Y10161D01*
X263915Y10161D01*
X264096Y10172D01*
X264279Y10174D01*
X264414Y10192D01*
X264551Y10201D01*
X264729Y10235D01*
X264910Y10259D01*
X265042Y10294D01*
X265176Y10320D01*
X265350Y10376D01*
X265526Y10423D01*
X265652Y10474D01*
X265782Y10517D01*
X265947Y10594D01*
X266116Y10663D01*
X266235Y10729D01*
X266359Y10788D01*
X266513Y10885D01*
X266672Y10974D01*
X266782Y11055D01*
X266897Y11129D01*
X267038Y11245D01*
X267184Y11353D01*
X267283Y11447D01*
X267388Y11534D01*
X267513Y11667D01*
X267645Y11793D01*
X267731Y11899D01*
X267825Y11998D01*
X267932Y12146D01*
X268047Y12287D01*
X268120Y12403D01*
X268200Y12513D01*
X268288Y12673D01*
X268384Y12828D01*
X268442Y12952D01*
X268508Y13071D01*
X268575Y13241D01*
X268651Y13406D01*
X268693Y13537D01*
X268743Y13664D01*
X268789Y13840D01*
X268844Y14014D01*
X268868Y14148D01*
X268902Y14280D01*
X268926Y14461D01*
X268958Y14640D01*
X268966Y14777D01*
X268983Y14912D01*
X268984Y15095D01*
X268994Y15277D01*
X268984Y15413D01*
X268984Y15550D01*
X268962Y15730D01*
X268949Y15912D01*
X268923Y16043D01*
X268906Y16182D01*
X268857Y16373D01*
X268821Y16555D01*
X266403Y25577D01*
X266403Y34423D01*
X268693Y42968D01*
X273116Y50629D01*
X279371Y56884D01*
X287032Y61307D01*
X295577Y63597D01*
X304423Y63597D01*
X313445Y61179D01*
X313624Y61143D01*
X313800Y61098D01*
X313936Y61080D01*
X314070Y61053D01*
X314252Y61040D01*
X314432Y61017D01*
X314569Y61016D01*
X314705Y61006D01*
X314887Y61016D01*
X315070Y61016D01*
X315205Y61032D01*
X315342Y61040D01*
X315521Y61072D01*
X315702Y61094D01*
X315834Y61128D01*
X315969Y61152D01*
X316143Y61206D01*
X316319Y61251D01*
X316446Y61301D01*
X316577Y61342D01*
X316742Y61418D01*
X316912Y61485D01*
X317032Y61550D01*
X317156Y61607D01*
X317311Y61703D01*
X317471Y61790D01*
X317582Y61870D01*
X317698Y61942D01*
X317840Y62057D01*
X317988Y62163D01*
X318087Y62257D01*
X318194Y62343D01*
X318320Y62474D01*
X318453Y62598D01*
X318541Y62703D01*
X318635Y62802D01*
X318744Y62948D01*
X318861Y63088D01*
X318934Y63203D01*
X319016Y63313D01*
X319105Y63471D01*
X319204Y63625D01*
X319262Y63749D01*
X319329Y63868D01*
X319399Y64036D01*
X319477Y64201D01*
X319519Y64331D01*
X319571Y64457D01*
X319619Y64633D01*
X319676Y64806D01*
X319702Y64940D01*
X319737Y65072D01*
X319762Y65252D01*
X319797Y65432D01*
X319806Y65565D01*
X319825Y65703D01*
X319827Y65901D01*
X319839Y66085D01*
X319839Y363915D01*
X319828Y364096D01*
X319826Y364279D01*
X319808Y364414D01*
X319799Y364551D01*
X319765Y364729D01*
X319741Y364910D01*
X319706Y365042D01*
X319680Y365176D01*
X319624Y365350D01*
X319577Y365526D01*
X319526Y365652D01*
X319483Y365782D01*
X319406Y365947D01*
X319337Y366116D01*
X319271Y366235D01*
X319212Y366359D01*
X319115Y366513D01*
X319026Y366672D01*
X318945Y366782D01*
X318871Y366897D01*
X318755Y367038D01*
X318647Y367184D01*
X318553Y367283D01*
X318466Y367388D01*
X318333Y367513D01*
X318207Y367645D01*
X318101Y367731D01*
X318002Y367825D01*
X317854Y367932D01*
X317713Y368047D01*
X317597Y368120D01*
X317487Y368200D01*
X317327Y368288D01*
X317172Y368384D01*
X317048Y368442D01*
X316929Y368508D01*
X316759Y368575D01*
X316594Y368651D01*
X316463Y368693D01*
X316336Y368743D01*
X316160Y368789D01*
X315986Y368844D01*
X315852Y368868D01*
X315720Y368902D01*
X315539Y368926D01*
X315360Y368958D01*
X315223Y368966D01*
X315088Y368983D01*
X314905Y368984D01*
X314723Y368994D01*
X314587Y368984D01*
X314450Y368984D01*
X314270Y368962D01*
X314088Y368949D01*
X313957Y368923D01*
X313818Y368906D01*
X313627Y368857D01*
X313445Y368821D01*
X304423Y366403D01*
X295577Y366403D01*
X287032Y368693D01*
X279371Y373116D01*
X273116Y379371D01*
X268693Y387032D01*
X266403Y395577D01*
X266403Y404423D01*
X268821Y413445D01*
X268857Y413624D01*
X268902Y413800D01*
X268920Y413936D01*
X268947Y414070D01*
X268960Y414252D01*
X268983Y414432D01*
X268984Y414569D01*
X268994Y414705D01*
X268984Y414887D01*
X268984Y415070D01*
X268968Y415205D01*
X268960Y415342D01*
X268928Y415521D01*
X268906Y415702D01*
X268872Y415834D01*
X268848Y415969D01*
X268794Y416143D01*
X268749Y416319D01*
X268699Y416446D01*
X268658Y416577D01*
X268582Y416742D01*
X268515Y416912D01*
X268450Y417032D01*
X268393Y417156D01*
X268297Y417311D01*
X268210Y417471D01*
X268130Y417582D01*
X268058Y417698D01*
X267943Y417840D01*
X267837Y417988D01*
X267743Y418087D01*
X267657Y418194D01*
X267526Y418320D01*
X267402Y418453D01*
X267297Y418541D01*
X267198Y418635D01*
X267052Y418744D01*
X266912Y418861D01*
X266797Y418934D01*
X266687Y419016D01*
X266529Y419105D01*
X266375Y419204D01*
X266251Y419262D01*
X266132Y419329D01*
X265964Y419399D01*
X265799Y419477D01*
X265669Y419519D01*
X265543Y419571D01*
X265367Y419619D01*
X265194Y419676D01*
X265060Y419702D01*
X264928Y419737D01*
X264748Y419762D01*
X264568Y419797D01*
X264435Y419806D01*
X264297Y419825D01*
X264099Y419827D01*
X263915Y419839D01*
X237343Y419839D01*
X237067Y419822D01*
X236789Y419809D01*
X236748Y419802D01*
X236708Y419799D01*
X236436Y419747D01*
X236161Y419700D01*
X236122Y419688D01*
X236082Y419680D01*
X235817Y419594D01*
X235552Y419513D01*
X235515Y419496D01*
X235476Y419483D01*
X235224Y419365D01*
X234971Y419251D01*
X234936Y419230D01*
X234899Y419212D01*
X234664Y419064D01*
X234428Y418919D01*
X234396Y418893D01*
X234361Y418871D01*
X234147Y418695D01*
X233930Y418521D01*
X233901Y418492D01*
X233870Y418466D01*
X233680Y418264D01*
X233486Y418064D01*
X233461Y418031D01*
X233433Y418002D01*
X233270Y417778D01*
X233103Y417555D01*
X233082Y417520D01*
X233058Y417487D01*
X232924Y417243D01*
X232786Y417002D01*
X232770Y416965D01*
X232750Y416929D01*
X232648Y416670D01*
X232541Y416414D01*
X232530Y416375D01*
X232515Y416336D01*
X232446Y416068D01*
X232372Y415800D01*
X232366Y415759D01*
X232356Y415720D01*
X232320Y415444D01*
X232281Y415169D01*
X232280Y415129D01*
X232275Y415088D01*
X232274Y414810D01*
X232269Y414532D01*
X232274Y414491D01*
X232274Y414450D01*
X232308Y414175D01*
X232338Y413899D01*
X232347Y413859D01*
X232352Y413818D01*
X232421Y413549D01*
X232485Y413279D01*
X232499Y413241D01*
X232509Y413201D01*
X232611Y412942D01*
X232709Y412682D01*
X232728Y412646D01*
X232743Y412608D01*
X232877Y412363D01*
X233005Y412118D01*
X233029Y412085D01*
X233048Y412049D01*
X233211Y411823D01*
X233370Y411596D01*
X233398Y411566D01*
X233422Y411532D01*
X233611Y411329D01*
X233797Y411124D01*
X233828Y411097D01*
X233856Y411067D01*
X234070Y410889D01*
X234280Y410708D01*
X234315Y410685D01*
X234346Y410659D01*
X234580Y410510D01*
X234812Y410357D01*
X234848Y410339D01*
X234883Y410316D01*
X235175Y410178D01*
X235400Y410067D01*
X237700Y409115D01*
X240736Y407492D01*
X243599Y405579D01*
X246260Y403395D01*
X248695Y400960D01*
X250879Y398299D01*
X252792Y395436D01*
X254415Y392400D01*
X255732Y389219D01*
X256236Y387559D01*
X227780Y387559D01*
X227626Y387549D01*
X227471Y387550D01*
X227308Y387530D01*
X227144Y387519D01*
X226992Y387490D01*
X226838Y387471D01*
X226679Y387431D01*
X226518Y387400D01*
X226371Y387352D01*
X226221Y387314D01*
X226068Y387254D01*
X225912Y387203D01*
X225772Y387137D01*
X225628Y387081D01*
X225484Y387002D01*
X225336Y386932D01*
X225205Y386850D01*
X225069Y386775D01*
X224936Y386679D01*
X224798Y386591D01*
X224678Y386493D01*
X224553Y386402D01*
X224433Y386290D01*
X224306Y386186D01*
X224200Y386073D01*
X224087Y385967D01*
X223982Y385841D01*
X223870Y385721D01*
X223778Y385596D01*
X223679Y385477D01*
X223591Y385339D01*
X223495Y385206D01*
X223420Y385071D01*
X223337Y384940D01*
X223266Y384792D01*
X223187Y384648D01*
X223130Y384505D01*
X223063Y384365D01*
X223012Y384209D01*
X222952Y384056D01*
X222913Y383906D01*
X222865Y383759D01*
X222833Y383598D01*
X222792Y383440D01*
X222773Y383286D01*
X222743Y383134D01*
X222733Y382975D01*
X222711Y382808D01*
X222711Y382639D01*
X222701Y382480D01*
X222701Y377399D01*
X217620Y377399D01*
X217466Y377389D01*
X217310Y377390D01*
X217148Y377369D01*
X216984Y377359D01*
X216832Y377330D01*
X216678Y377311D01*
X216519Y377271D01*
X216358Y377240D01*
X216211Y377192D01*
X216061Y377154D01*
X215908Y377094D01*
X215752Y377043D01*
X215612Y376977D01*
X215468Y376921D01*
X215324Y376842D01*
X215176Y376772D01*
X215045Y376689D01*
X214909Y376615D01*
X214776Y376519D01*
X214637Y376431D01*
X214518Y376333D01*
X214392Y376242D01*
X214273Y376130D01*
X214146Y376025D01*
X214040Y375913D01*
X213927Y375807D01*
X213822Y375681D01*
X213710Y375561D01*
X213618Y375436D01*
X213519Y375317D01*
X213431Y375179D01*
X213335Y375046D01*
X213260Y374911D01*
X213176Y374780D01*
X213106Y374632D01*
X213027Y374488D01*
X212970Y374345D01*
X212903Y374204D01*
X212852Y374049D01*
X212792Y373896D01*
X212753Y373746D01*
X212705Y373599D01*
X212673Y373438D01*
X212632Y373279D01*
X212613Y373126D01*
X212583Y372974D01*
X212573Y372815D01*
X212551Y372647D01*
X212551Y372479D01*
X212541Y372320D01*
X212541Y343864D01*
X210881Y344368D01*
X207700Y345685D01*
X204664Y347308D01*
X201801Y349221D01*
X199140Y351405D01*
X197968Y352577D01*
X197790Y352734D01*
X197618Y352896D01*
X197551Y352945D01*
X197490Y352999D01*
X197294Y353132D01*
X197102Y353271D01*
X197031Y353311D01*
X196963Y353357D01*
X196752Y353465D01*
X196545Y353579D01*
X196468Y353609D01*
X196395Y353646D01*
X196172Y353727D01*
X195952Y353814D01*
X195873Y353835D01*
X195796Y353863D01*
X195565Y353914D01*
X195336Y353974D01*
X195254Y353984D01*
X195174Y354002D01*
X194939Y354024D01*
X194704Y354055D01*
X194621Y354055D01*
X194540Y354062D01*
X194304Y354055D01*
X194066Y354056D01*
X193985Y354046D01*
X193903Y354043D01*
X193670Y354006D01*
X193434Y353977D01*
X193354Y353957D01*
X193274Y353944D01*
X193047Y353878D01*
X192817Y353820D01*
X192740Y353790D01*
X192662Y353767D01*
X192444Y353673D01*
X192224Y353587D01*
X192152Y353547D01*
X192077Y353515D01*
X191873Y353395D01*
X191665Y353281D01*
X191598Y353233D01*
X191528Y353191D01*
X191340Y353046D01*
X191148Y352908D01*
X191089Y352852D01*
X191024Y352802D01*
X190856Y352635D01*
X190683Y352473D01*
X190630Y352410D01*
X190572Y352352D01*
X190427Y352165D01*
X190275Y351983D01*
X190231Y351914D01*
X190181Y351849D01*
X190060Y351645D01*
X189932Y351446D01*
X189897Y351372D01*
X189855Y351301D01*
X189761Y351085D01*
X189659Y350870D01*
X189634Y350792D01*
X189601Y350717D01*
X189534Y350490D01*
X189460Y350265D01*
X189445Y350185D01*
X189422Y350106D01*
X189384Y349872D01*
X189339Y349640D01*
X189334Y349559D01*
X189321Y349477D01*
X189312Y349217D01*
X189297Y348986D01*
X189297Y343687D01*
X188369Y341446D01*
X186654Y339731D01*
X184413Y338803D01*
X150226Y338803D01*
X150071Y338794D01*
X149916Y338794D01*
X149754Y338774D01*
X149590Y338763D01*
X149438Y338734D01*
X149284Y338715D01*
X149125Y338675D01*
X148964Y338644D01*
X148817Y338596D01*
X148667Y338558D01*
X148514Y338498D01*
X148358Y338447D01*
X148218Y338382D01*
X148074Y338325D01*
X147930Y338246D01*
X147782Y338176D01*
X147651Y338094D01*
X147515Y338019D01*
X147382Y337923D01*
X147243Y337835D01*
X147124Y337737D01*
X146998Y337646D01*
X146879Y337534D01*
X146752Y337430D01*
X146646Y337317D01*
X146533Y337211D01*
X146428Y337085D01*
X146316Y336966D01*
X146224Y336840D01*
X146125Y336721D01*
X146037Y336583D01*
X145941Y336451D01*
X145866Y336315D01*
X145782Y336184D01*
X145712Y336036D01*
X145633Y335893D01*
X145576Y335749D01*
X145509Y335609D01*
X145458Y335453D01*
X145398Y335300D01*
X145359Y335150D01*
X145310Y335003D01*
X145279Y334842D01*
X145238Y334684D01*
X145219Y334530D01*
X145189Y334378D01*
X145179Y334219D01*
X145157Y334052D01*
X145157Y333883D01*
X145147Y333724D01*
X145147Y327110D01*
X145154Y326996D01*
X145152Y326882D01*
X145174Y326678D01*
X145187Y326474D01*
X145208Y326362D01*
X145220Y326249D01*
X145268Y326049D01*
X145306Y325848D01*
X145341Y325740D01*
X145367Y325629D01*
X145439Y325437D01*
X145503Y325242D01*
X145551Y325139D01*
X145591Y325032D01*
X145686Y324851D01*
X145774Y324666D01*
X145835Y324569D01*
X145888Y324468D01*
X146005Y324301D01*
X146115Y324127D01*
X146187Y324040D01*
X146252Y323946D01*
X146390Y323794D01*
X146520Y323636D01*
X146603Y323558D01*
X146680Y323474D01*
X146835Y323340D01*
X146984Y323200D01*
X147077Y323133D01*
X147163Y323058D01*
X147334Y322945D01*
X147499Y322825D01*
X147599Y322770D01*
X147694Y322707D01*
X147871Y322620D01*
X148057Y322517D01*
X148174Y322470D01*
X148282Y322417D01*
X149994Y321709D01*
X151877Y319825D01*
X152052Y319670D01*
X152222Y319511D01*
X152291Y319460D01*
X152355Y319403D01*
X152548Y319272D01*
X152736Y319135D01*
X152811Y319093D01*
X152882Y319045D01*
X153089Y318939D01*
X153294Y318826D01*
X153373Y318795D01*
X153450Y318756D01*
X153669Y318677D01*
X153885Y318590D01*
X153968Y318569D01*
X154049Y318540D01*
X154277Y318489D01*
X154502Y318430D01*
X154587Y318419D01*
X154671Y318400D01*
X154903Y318378D01*
X154921Y318376D01*
X154921Y310000D01*
X154921Y301624D01*
X154689Y301603D01*
X154605Y301584D01*
X154520Y301573D01*
X154294Y301516D01*
X154066Y301465D01*
X153986Y301437D01*
X153903Y301415D01*
X153686Y301330D01*
X153466Y301251D01*
X153390Y301213D01*
X153310Y301181D01*
X153106Y301069D01*
X152898Y300964D01*
X152827Y300916D01*
X152752Y300875D01*
X152563Y300738D01*
X152369Y300608D01*
X152306Y300552D01*
X152236Y300501D01*
X152049Y300326D01*
X151877Y300175D01*
X149994Y298291D01*
X148600Y297714D01*
X148424Y297628D01*
X148245Y297551D01*
X148139Y297488D01*
X148028Y297434D01*
X147864Y297327D01*
X147696Y297227D01*
X147598Y297152D01*
X147496Y297084D01*
X147347Y296957D01*
X147192Y296837D01*
X147104Y296751D01*
X147011Y296671D01*
X146879Y296526D01*
X146740Y296388D01*
X146665Y296291D01*
X146582Y296200D01*
X146469Y296039D01*
X146349Y295885D01*
X146286Y295779D01*
X146215Y295679D01*
X146123Y295506D01*
X146023Y295337D01*
X145974Y295225D01*
X145917Y295116D01*
X145847Y294933D01*
X145769Y294753D01*
X145734Y294635D01*
X145691Y294520D01*
X145645Y294330D01*
X145590Y294142D01*
X145570Y294020D01*
X145541Y293901D01*
X145520Y293706D01*
X145489Y293513D01*
X145484Y293390D01*
X145471Y293268D01*
X145474Y293072D01*
X145467Y292876D01*
X145478Y292753D01*
X145480Y292631D01*
X145507Y292437D01*
X145525Y292241D01*
X145552Y292121D01*
X145569Y292000D01*
X145620Y291810D01*
X145662Y291619D01*
X145703Y291504D01*
X145736Y291385D01*
X145811Y291203D01*
X145876Y291019D01*
X145932Y290909D01*
X145979Y290796D01*
X146075Y290625D01*
X146164Y290451D01*
X146232Y290349D01*
X146293Y290242D01*
X146410Y290085D01*
X146520Y289922D01*
X146599Y289832D01*
X146675Y289731D01*
X146823Y289578D01*
X146952Y289430D01*
X189535Y246848D01*
X192397Y239939D01*
X192397Y232461D01*
X189535Y225552D01*
X184248Y220265D01*
X177339Y217403D01*
X169861Y217403D01*
X162952Y220265D01*
X116417Y266800D01*
X116417Y266801D01*
X110415Y272802D01*
X107553Y279711D01*
X107553Y325124D01*
X107544Y325277D01*
X107544Y325384D01*
X107544Y325434D01*
X107524Y325596D01*
X107513Y325760D01*
X107484Y325912D01*
X107465Y326066D01*
X107425Y326225D01*
X107394Y326386D01*
X107346Y326533D01*
X107308Y326683D01*
X107248Y326836D01*
X107197Y326992D01*
X107132Y327132D01*
X107075Y327276D01*
X106996Y327420D01*
X106926Y327568D01*
X106844Y327699D01*
X106769Y327835D01*
X106673Y327968D01*
X106585Y328107D01*
X106487Y328226D01*
X106396Y328352D01*
X106284Y328471D01*
X106180Y328598D01*
X106067Y328704D01*
X105961Y328817D01*
X105835Y328922D01*
X105716Y329034D01*
X105590Y329126D01*
X105471Y329225D01*
X105333Y329313D01*
X105201Y329409D01*
X105065Y329484D01*
X104934Y329568D01*
X104786Y329638D01*
X104643Y329717D01*
X104499Y329774D01*
X104359Y329841D01*
X104203Y329892D01*
X104050Y329952D01*
X103900Y329991D01*
X103753Y330040D01*
X103592Y330071D01*
X103434Y330112D01*
X103280Y330131D01*
X103128Y330161D01*
X102969Y330171D01*
X102802Y330193D01*
X102633Y330193D01*
X102474Y330203D01*
X77534Y330203D01*
X77325Y330190D01*
X77115Y330186D01*
X77007Y330170D01*
X76898Y330163D01*
X76692Y330124D01*
X76485Y330094D01*
X76379Y330065D01*
X76272Y330044D01*
X76073Y329979D01*
X75871Y329923D01*
X75770Y329881D01*
X75666Y329847D01*
X75476Y329758D01*
X75283Y329677D01*
X75188Y329623D01*
X75089Y329576D01*
X74912Y329464D01*
X74731Y329360D01*
X74644Y329294D01*
X74551Y329235D01*
X74390Y329102D01*
X74223Y328976D01*
X74144Y328899D01*
X74060Y328830D01*
X73917Y328677D01*
X73767Y328531D01*
X73698Y328445D01*
X73623Y328366D01*
X73500Y328196D01*
X73370Y328032D01*
X73313Y327939D01*
X73248Y327851D01*
X73147Y327667D01*
X73038Y327488D01*
X72994Y327388D01*
X72941Y327293D01*
X72863Y327098D01*
X72778Y326907D01*
X72746Y326802D01*
X72705Y326700D01*
X72653Y326498D01*
X72592Y326297D01*
X72573Y326189D01*
X72546Y326084D01*
X72520Y325876D01*
X72484Y325669D01*
X72479Y325560D01*
X72465Y325452D01*
X72465Y325242D01*
X72455Y325033D01*
X72464Y324924D01*
X72464Y324814D01*
X72490Y324606D01*
X72507Y324398D01*
X72529Y324291D01*
X72543Y324182D01*
X72594Y323979D01*
X72637Y323774D01*
X72673Y323671D01*
X72700Y323565D01*
X72777Y323370D01*
X72845Y323172D01*
X72892Y323076D01*
X72933Y322972D01*
X73043Y322771D01*
X73135Y322584D01*
X75489Y318508D01*
X77097Y312507D01*
X77097Y306293D01*
X75489Y300292D01*
X72977Y295942D01*
X72957Y295901D01*
X72932Y295863D01*
X72815Y295615D01*
X72694Y295371D01*
X72679Y295328D01*
X72659Y295287D01*
X72574Y295027D01*
X72484Y294770D01*
X72475Y294725D01*
X72460Y294682D01*
X72408Y294413D01*
X72352Y294147D01*
X72348Y294101D01*
X72339Y294056D01*
X72323Y293808D01*
X72298Y293512D01*
X72300Y293456D01*
X72297Y293402D01*
X72297Y187086D01*
X72306Y186931D01*
X72306Y186776D01*
X72326Y186614D01*
X72337Y186450D01*
X72366Y186298D01*
X72385Y186144D01*
X72425Y185985D01*
X72456Y185824D01*
X72504Y185677D01*
X72542Y185527D01*
X72602Y185374D01*
X72653Y185218D01*
X72718Y185078D01*
X72775Y184934D01*
X72854Y184790D01*
X72924Y184642D01*
X73006Y184511D01*
X73081Y184375D01*
X73177Y184242D01*
X73265Y184103D01*
X73363Y183984D01*
X73454Y183858D01*
X73566Y183739D01*
X73670Y183612D01*
X73783Y183506D01*
X73889Y183393D01*
X74015Y183288D01*
X74134Y183176D01*
X74260Y183084D01*
X74379Y182985D01*
X74517Y182897D01*
X74649Y182801D01*
X74785Y182726D01*
X74916Y182642D01*
X75064Y182572D01*
X75207Y182493D01*
X75351Y182436D01*
X75491Y182369D01*
X75647Y182318D01*
X75800Y182258D01*
X75950Y182219D01*
X76097Y182170D01*
X76258Y182139D01*
X76416Y182098D01*
X76570Y182079D01*
X76722Y182049D01*
X76881Y182039D01*
X77048Y182017D01*
X77217Y182017D01*
X77376Y182007D01*
X87413Y182007D01*
X89654Y181079D01*
X91369Y179364D01*
X92297Y177123D01*
X92297Y99697D01*
X91369Y97456D01*
X89654Y95741D01*
X87413Y94813D01*
X15240Y94813D01*
X15085Y94804D01*
X14930Y94804D01*
X14768Y94784D01*
X14604Y94773D01*
X14452Y94744D01*
X14298Y94725D01*
X14139Y94685D01*
X13978Y94654D01*
X13831Y94606D01*
X13681Y94568D01*
X13528Y94508D01*
X13372Y94457D01*
X13232Y94392D01*
X13088Y94335D01*
X12944Y94256D01*
X12796Y94186D01*
X12665Y94104D01*
X12529Y94029D01*
X12396Y93933D01*
X12257Y93845D01*
X12138Y93747D01*
X12012Y93656D01*
X11893Y93544D01*
X11766Y93440D01*
X11660Y93327D01*
X11547Y93221D01*
X11442Y93095D01*
X11330Y92976D01*
X11238Y92850D01*
X11139Y92731D01*
X11051Y92593D01*
X10955Y92461D01*
X10880Y92325D01*
X10796Y92194D01*
X10726Y92046D01*
X10647Y91903D01*
X10590Y91759D01*
X10523Y91619D01*
X10472Y91463D01*
X10412Y91310D01*
X10373Y91160D01*
X10324Y91013D01*
X10293Y90852D01*
X10252Y90694D01*
X10233Y90540D01*
X10203Y90388D01*
X10193Y90229D01*
X10171Y90062D01*
X10171Y89893D01*
X10161Y89734D01*
X10161Y66085D01*
X10172Y65904D01*
X10174Y65721D01*
X10192Y65586D01*
X10201Y65449D01*
X10235Y65271D01*
X10259Y65090D01*
X10294Y64958D01*
X10320Y64824D01*
X10376Y64650D01*
X10423Y64474D01*
X10474Y64348D01*
X10517Y64218D01*
X10594Y64053D01*
X10663Y63884D01*
X10729Y63765D01*
X10788Y63641D01*
X10885Y63487D01*
X10974Y63328D01*
X11055Y63218D01*
X11129Y63103D01*
X11245Y62962D01*
X11353Y62816D01*
X11447Y62717D01*
X11534Y62612D01*
X11667Y62487D01*
X11793Y62355D01*
X11899Y62269D01*
X11998Y62175D01*
X12146Y62068D01*
X12287Y61953D01*
X12403Y61880D01*
X12513Y61800D01*
X12673Y61712D01*
X12828Y61616D01*
X12952Y61558D01*
X13071Y61492D01*
X13241Y61425D01*
X13406Y61349D01*
X13537Y61307D01*
X13664Y61257D01*
X13840Y61211D01*
X14014Y61156D01*
X14148Y61132D01*
X14280Y61098D01*
X14461Y61074D01*
X14640Y61042D01*
X14777Y61034D01*
X14912Y61017D01*
X15095Y61016D01*
X15277Y61006D01*
X15413Y61016D01*
X15550Y61016D01*
X15730Y61038D01*
X15912Y61051D01*
X16043Y61077D01*
X16182Y61094D01*
X16373Y61143D01*
X16555Y61179D01*
X25577Y63597D01*
X34423Y63597D01*
X42968Y61307D01*
X50629Y56884D01*
X56884Y50629D01*
X61307Y42968D01*
X63597Y34423D01*
X63597Y25577D01*
X61179Y16555D01*
X61143Y16376D01*
X61098Y16200D01*
X61080Y16064D01*
X61053Y15930D01*
X61040Y15748D01*
X61017Y15568D01*
X61016Y15431D01*
X61006Y15295D01*
X61016Y15113D01*
X61016Y14930D01*
X61032Y14795D01*
X61040Y14658D01*
X61072Y14479D01*
X61094Y14298D01*
X61128Y14166D01*
X61152Y14031D01*
X61206Y13857D01*
X61251Y13681D01*
X61301Y13554D01*
X61342Y13423D01*
X61418Y13258D01*
X61485Y13088D01*
X61550Y12968D01*
X61607Y12844D01*
X61703Y12689D01*
X61790Y12529D01*
X61870Y12418D01*
X61942Y12302D01*
X62057Y12160D01*
X62163Y12012D01*
X62257Y11913D01*
X62343Y11806D01*
X62474Y11680D01*
X62598Y11547D01*
X62703Y11459D01*
X62802Y11365D01*
X62948Y11256D01*
X63088Y11139D01*
X63203Y11066D01*
X63313Y10984D01*
X63471Y10895D01*
X63625Y10796D01*
X63749Y10738D01*
X63868Y10671D01*
X64036Y10601D01*
X64201Y10523D01*
X64331Y10481D01*
X64457Y10429D01*
X64633Y10381D01*
X64806Y10324D01*
X64940Y10298D01*
X65072Y10263D01*
X65252Y10238D01*
X65432Y10203D01*
X65565Y10194D01*
X65703Y10175D01*
X65901Y10173D01*
X66085Y10161D01*
X106233Y10161D01*
X106429Y10173D01*
G37*
%LPC*%
G36*
X224993Y216479D02*
X224993Y216479D01*
X222752Y217407D01*
X221037Y219122D01*
X220109Y221363D01*
X220109Y236869D01*
X221320Y239792D01*
X221344Y239861D01*
X221374Y239927D01*
X221447Y240162D01*
X221526Y240395D01*
X221541Y240466D01*
X221563Y240536D01*
X221606Y240777D01*
X221656Y241018D01*
X221662Y241091D01*
X221674Y241163D01*
X221687Y241408D01*
X221706Y241654D01*
X221703Y241727D01*
X221706Y241799D01*
X221688Y242044D01*
X221676Y242290D01*
X221664Y242362D01*
X221658Y242435D01*
X221609Y242676D01*
X221567Y242918D01*
X221546Y242987D01*
X221531Y243059D01*
X221457Y243278D01*
X221380Y243527D01*
X221346Y243603D01*
X221320Y243679D01*
X220109Y246602D01*
X220109Y251630D01*
X222033Y256274D01*
X224104Y258345D01*
X224315Y258584D01*
X224518Y258814D01*
X224521Y258818D01*
X224525Y258823D01*
X224701Y259082D01*
X224878Y259340D01*
X224880Y259345D01*
X224883Y259349D01*
X225024Y259626D01*
X225168Y259907D01*
X225170Y259912D01*
X225173Y259917D01*
X225275Y260200D01*
X225386Y260506D01*
X225387Y260511D01*
X225389Y260516D01*
X225459Y260828D01*
X225527Y261127D01*
X225527Y261133D01*
X225528Y261138D01*
X225558Y261450D01*
X225588Y261762D01*
X225588Y261767D01*
X225589Y261772D01*
X225579Y262080D01*
X225570Y262398D01*
X225569Y262404D01*
X225569Y262409D01*
X225522Y262713D01*
X225473Y263028D01*
X225471Y263033D01*
X225470Y263039D01*
X225384Y263337D01*
X225297Y263641D01*
X225295Y263645D01*
X225293Y263651D01*
X225127Y264037D01*
X232746Y264037D01*
X240976Y264037D01*
X240975Y263914D01*
X240976Y263911D01*
X240976Y263907D01*
X241015Y263596D01*
X241054Y263282D01*
X241055Y263279D01*
X241055Y263275D01*
X241132Y262974D01*
X241211Y262665D01*
X241213Y262661D01*
X241213Y262658D01*
X241327Y262372D01*
X241444Y262072D01*
X241446Y262069D01*
X241447Y262065D01*
X241599Y261789D01*
X241750Y261513D01*
X241752Y261510D01*
X241754Y261507D01*
X241940Y261250D01*
X242123Y260996D01*
X242126Y260994D01*
X242128Y260991D01*
X242346Y260758D01*
X242558Y260531D01*
X242561Y260528D01*
X242563Y260526D01*
X242804Y260326D01*
X243048Y260123D01*
X243051Y260121D01*
X243054Y260119D01*
X243328Y259944D01*
X243585Y259780D01*
X243588Y259779D01*
X243591Y259777D01*
X243872Y259644D01*
X244161Y259507D01*
X244164Y259506D01*
X244167Y259505D01*
X244468Y259406D01*
X244766Y259308D01*
X244769Y259308D01*
X244773Y259307D01*
X245081Y259247D01*
X245391Y259187D01*
X245395Y259187D01*
X245398Y259186D01*
X246034Y259145D01*
X246040Y259145D01*
X246045Y259145D01*
X254108Y259145D01*
X254181Y259149D01*
X254254Y259147D01*
X254499Y259169D01*
X254744Y259185D01*
X254816Y259198D01*
X254888Y259205D01*
X255129Y259258D01*
X255370Y259304D01*
X255439Y259327D01*
X255511Y259342D01*
X255742Y259425D01*
X255976Y259501D01*
X256042Y259532D01*
X256111Y259556D01*
X256330Y259667D01*
X256553Y259772D01*
X256614Y259811D01*
X256679Y259844D01*
X256883Y259981D01*
X257091Y260113D01*
X257147Y260159D01*
X257208Y260200D01*
X257381Y260353D01*
X257582Y260518D01*
X257639Y260579D01*
X257700Y260632D01*
X274820Y277753D01*
X278181Y279145D01*
X280150Y279145D01*
X280305Y279154D01*
X280460Y279154D01*
X280622Y279174D01*
X280786Y279185D01*
X280938Y279214D01*
X281092Y279233D01*
X281251Y279273D01*
X281412Y279304D01*
X281559Y279352D01*
X281709Y279390D01*
X281862Y279450D01*
X282018Y279501D01*
X282158Y279566D01*
X282302Y279623D01*
X282446Y279702D01*
X282594Y279772D01*
X282725Y279854D01*
X282861Y279929D01*
X282994Y280025D01*
X283133Y280113D01*
X283252Y280211D01*
X283378Y280302D01*
X283497Y280414D01*
X283624Y280518D01*
X283730Y280631D01*
X283843Y280737D01*
X283948Y280863D01*
X284060Y280982D01*
X284152Y281108D01*
X284251Y281227D01*
X284339Y281365D01*
X284435Y281497D01*
X284510Y281633D01*
X284594Y281764D01*
X284664Y281912D01*
X284743Y282055D01*
X284800Y282199D01*
X284867Y282339D01*
X284918Y282495D01*
X284978Y282648D01*
X285017Y282798D01*
X285066Y282945D01*
X285097Y283106D01*
X285138Y283264D01*
X285157Y283418D01*
X285187Y283570D01*
X285197Y283729D01*
X285219Y283896D01*
X285219Y284065D01*
X285229Y284224D01*
X285229Y292559D01*
X285222Y292673D01*
X285224Y292787D01*
X285202Y292991D01*
X285189Y293195D01*
X285168Y293307D01*
X285156Y293421D01*
X285108Y293620D01*
X285070Y293821D01*
X285035Y293930D01*
X285009Y294041D01*
X284937Y294233D01*
X284873Y294427D01*
X284825Y294530D01*
X284785Y294637D01*
X284689Y294819D01*
X284602Y295004D01*
X284541Y295100D01*
X284488Y295201D01*
X284371Y295369D01*
X284261Y295542D01*
X284189Y295630D01*
X284123Y295723D01*
X283986Y295875D01*
X283856Y296033D01*
X283772Y296112D01*
X283696Y296196D01*
X283541Y296329D01*
X283392Y296470D01*
X283299Y296537D01*
X283213Y296611D01*
X283042Y296724D01*
X282877Y296845D01*
X282777Y296900D01*
X282721Y296937D01*
X280911Y298746D01*
X279983Y300987D01*
X279983Y316413D01*
X280911Y318654D01*
X282052Y319794D01*
X282100Y319848D01*
X282153Y319898D01*
X282311Y320087D01*
X282473Y320272D01*
X282514Y320332D01*
X282561Y320388D01*
X282693Y320595D01*
X282831Y320798D01*
X282864Y320863D01*
X282904Y320925D01*
X283009Y321147D01*
X283121Y321366D01*
X283145Y321435D01*
X283177Y321501D01*
X283253Y321734D01*
X283337Y321965D01*
X283353Y322037D01*
X283376Y322106D01*
X283422Y322347D01*
X283476Y322587D01*
X283479Y322621D01*
X294080Y322621D01*
X304680Y322621D01*
X304681Y322605D01*
X304734Y322365D01*
X304780Y322124D01*
X304803Y322054D01*
X304818Y321983D01*
X304901Y321752D01*
X304977Y321517D01*
X305008Y321451D01*
X305032Y321383D01*
X305143Y321164D01*
X305248Y320941D01*
X305287Y320879D01*
X305320Y320814D01*
X305457Y320611D01*
X305589Y320403D01*
X305635Y320346D01*
X305676Y320286D01*
X305829Y320112D01*
X305994Y319911D01*
X306055Y319854D01*
X306108Y319794D01*
X307249Y318654D01*
X308177Y316413D01*
X308177Y300987D01*
X307249Y298746D01*
X305006Y296504D01*
X304958Y296450D01*
X304905Y296400D01*
X304747Y296211D01*
X304585Y296026D01*
X304544Y295966D01*
X304497Y295910D01*
X304365Y295703D01*
X304227Y295500D01*
X304194Y295435D01*
X304154Y295373D01*
X304049Y295151D01*
X303937Y294932D01*
X303913Y294863D01*
X303881Y294797D01*
X303805Y294564D01*
X303721Y294333D01*
X303705Y294261D01*
X303682Y294192D01*
X303636Y293951D01*
X303582Y293711D01*
X303575Y293638D01*
X303561Y293567D01*
X303546Y293335D01*
X303521Y293077D01*
X303524Y292993D01*
X303519Y292913D01*
X303519Y279946D01*
X303523Y279873D01*
X303521Y279800D01*
X303543Y279555D01*
X303559Y279310D01*
X303572Y279239D01*
X303579Y279166D01*
X303632Y278926D01*
X303678Y278684D01*
X303701Y278615D01*
X303716Y278544D01*
X303799Y278313D01*
X303875Y278078D01*
X303906Y278012D01*
X303930Y277944D01*
X304041Y277725D01*
X304146Y277502D01*
X304185Y277440D01*
X304218Y277375D01*
X304355Y277172D01*
X304487Y276964D01*
X304533Y276907D01*
X304574Y276847D01*
X304727Y276673D01*
X304892Y276472D01*
X304953Y276415D01*
X305006Y276355D01*
X305087Y276274D01*
X307011Y271630D01*
X307011Y266602D01*
X305800Y263679D01*
X305776Y263610D01*
X305746Y263544D01*
X305673Y263309D01*
X305594Y263077D01*
X305579Y263005D01*
X305557Y262935D01*
X305514Y262694D01*
X305464Y262453D01*
X305458Y262380D01*
X305446Y262308D01*
X305433Y262063D01*
X305414Y261818D01*
X305417Y261744D01*
X305414Y261672D01*
X305432Y261427D01*
X305444Y261181D01*
X305456Y261109D01*
X305462Y261036D01*
X305511Y260795D01*
X305553Y260553D01*
X305574Y260484D01*
X305589Y260412D01*
X305663Y260193D01*
X305740Y259944D01*
X305774Y259868D01*
X305800Y259792D01*
X307011Y256869D01*
X307011Y241363D01*
X306083Y239122D01*
X304368Y237407D01*
X302127Y236479D01*
X291516Y236479D01*
X291443Y236475D01*
X291370Y236477D01*
X291125Y236455D01*
X290880Y236439D01*
X290808Y236426D01*
X290736Y236419D01*
X290495Y236366D01*
X290254Y236320D01*
X290185Y236297D01*
X290113Y236282D01*
X289882Y236199D01*
X289648Y236123D01*
X289582Y236092D01*
X289513Y236068D01*
X289294Y235957D01*
X289071Y235852D01*
X289010Y235813D01*
X288945Y235780D01*
X288741Y235643D01*
X288533Y235511D01*
X288477Y235465D01*
X288416Y235424D01*
X288243Y235271D01*
X288042Y235106D01*
X287985Y235045D01*
X287924Y234992D01*
X275180Y222247D01*
X271819Y220855D01*
X248291Y220855D01*
X248218Y220851D01*
X248145Y220853D01*
X247900Y220831D01*
X247655Y220815D01*
X247584Y220802D01*
X247511Y220795D01*
X247271Y220742D01*
X247030Y220696D01*
X246960Y220673D01*
X246889Y220658D01*
X246658Y220575D01*
X246423Y220499D01*
X246357Y220468D01*
X246289Y220444D01*
X246070Y220333D01*
X245847Y220228D01*
X245785Y220189D01*
X245720Y220156D01*
X245517Y220019D01*
X245309Y219887D01*
X245252Y219841D01*
X245192Y219800D01*
X245018Y219647D01*
X244817Y219482D01*
X244760Y219421D01*
X244700Y219368D01*
X242740Y217407D01*
X240499Y216479D01*
X224993Y216479D01*
G37*
%LPD*%
%LPC*%
G36*
X232859Y367241D02*
X232859Y367241D01*
X256236Y367241D01*
X255732Y365581D01*
X254415Y362400D01*
X252792Y359364D01*
X250879Y356501D01*
X248695Y353840D01*
X246260Y351405D01*
X243599Y349221D01*
X240736Y347308D01*
X237700Y345685D01*
X234519Y344368D01*
X232859Y343864D01*
X232859Y367241D01*
G37*
%LPD*%
%LPC*%
G36*
X299159Y332779D02*
X299159Y332779D01*
X299159Y336741D01*
X302330Y336741D01*
X302821Y336643D01*
X303283Y336452D01*
X303700Y336173D01*
X304053Y335820D01*
X304332Y335403D01*
X304523Y334941D01*
X304621Y334450D01*
X304621Y332779D01*
X299159Y332779D01*
G37*
%LPD*%
%LPC*%
G36*
X283539Y332779D02*
X283539Y332779D01*
X283539Y334450D01*
X283637Y334941D01*
X283828Y335403D01*
X284107Y335820D01*
X284460Y336173D01*
X284877Y336452D01*
X285339Y336643D01*
X285830Y336741D01*
X289001Y336741D01*
X289001Y332779D01*
X283539Y332779D01*
G37*
%LPD*%
%LPC*%
G36*
X165079Y315079D02*
X165079Y315079D01*
X165079Y317534D01*
X165916Y316926D01*
X166926Y315916D01*
X167534Y315079D01*
X165079Y315079D01*
G37*
%LPD*%
%LPC*%
G36*
X237825Y274195D02*
X237825Y274195D01*
X237825Y276650D01*
X238662Y276042D01*
X239672Y275032D01*
X240280Y274195D01*
X237825Y274195D01*
G37*
%LPD*%
%LPC*%
G36*
X165079Y304921D02*
X165079Y304921D01*
X167534Y304921D01*
X166926Y304084D01*
X165916Y303074D01*
X165079Y302466D01*
X165079Y304921D01*
G37*
%LPD*%
%LPC*%
G36*
X225212Y274195D02*
X225212Y274195D01*
X225820Y275032D01*
X226830Y276042D01*
X227667Y276650D01*
X227667Y274195D01*
X225212Y274195D01*
G37*
%LPD*%
D10*
X294080Y327700D03*
X294080Y308700D03*
D11*
X23600Y236200D03*
D12*
X173600Y236200D03*
D13*
X150700Y377400D03*
D14*
X222700Y377400D03*
D13*
X148900Y52400D03*
D14*
X220900Y52400D03*
D15*
X53500Y309400D03*
D16*
X53500Y349000D03*
D17*
X294374Y249116D03*
D18*
X294374Y269116D03*
D17*
X232746Y229116D03*
D18*
X232746Y249116D03*
X232746Y269116D03*
D19*
X188400Y138410D03*
X48700Y138410D03*
D17*
X140000Y310000D03*
D18*
X160000Y310000D03*
D20*
X126350Y283450D02*
X173600Y236200D01*
D21*
X53500Y349000D02*
X64120Y359620D01*
X132920Y359620D01*
X150700Y377400D01*
D20*
X126350Y320000D02*
X126350Y283450D01*
X126350Y320000D02*
X126350Y349000D01*
X53500Y349000D01*
D22*
X126350Y320000D02*
X136350Y310000D01*
D23*
X140000Y310000D01*
D21*
X48700Y236200D02*
X48700Y138410D01*
X48700Y236200D02*
X48700Y304600D01*
X53500Y309400D01*
D20*
X48700Y236200D02*
X23600Y236200D01*
D23*
X50290Y140000D02*
X48700Y138410D01*
X50290Y140000D02*
X60000Y140000D01*
X48700Y138410D02*
X43508Y143602D01*
X40330Y143602D01*
X33932Y150000D01*
X30000Y150000D01*
D24*
X26110Y80428D03*
X86110Y80428D03*
X86110Y20428D03*
X296110Y80428D03*
X266110Y80428D03*
X266110Y140428D03*
X106110Y140428D03*
X106110Y200428D03*
X246110Y200428D03*
X106110Y260428D03*
X236110Y320428D03*
X186110Y200428D03*
X186110Y320428D03*
X296110Y360428D03*
D25*
X168410Y138410D02*
X150000Y120000D01*
X150000Y53500D02*
X148900Y52400D01*
X150000Y53500D02*
X150000Y120000D01*
D23*
X188400Y138410D02*
X189990Y140000D01*
X190000Y140000D01*
X232746Y229116D02*
X233630Y230000D01*
X270000Y230000D01*
X289116Y249116D02*
X294374Y249116D01*
X289116Y249116D02*
X270000Y230000D01*
X233630Y250000D02*
X232746Y249116D01*
X260000Y250000D02*
X280000Y270000D01*
X293490Y270000D01*
X294374Y269116D01*
X260000Y250000D02*
X233630Y250000D01*
X294374Y269116D02*
X294374Y308406D01*
X294080Y308700D01*
D26*
X300000Y400000D03*
X300000Y30000D03*
X30000Y30000D03*
X30000Y400000D03*
M02*
