G04 EAGLE Gerber RS-274X export*
G75*
%MOMM*%
%FSLAX34Y34*%
%LPD*%
%INMechanical*%
%IPPOS*%
%AMOC8*
5,1,8,0,0,1.08239X$1,22.5*%
G01*
%ADD10C,0.254000*%


D10*
X0Y20000D02*
X76Y18257D01*
X304Y16527D01*
X681Y14824D01*
X1206Y13160D01*
X1874Y11548D01*
X2680Y10000D01*
X3617Y8528D01*
X4679Y7144D01*
X5858Y5858D01*
X7144Y4679D01*
X8528Y3617D01*
X10000Y2680D01*
X11548Y1874D01*
X13160Y1206D01*
X14824Y681D01*
X16527Y304D01*
X18257Y76D01*
X20000Y0D01*
X310000Y0D01*
X311743Y76D01*
X313473Y304D01*
X315176Y681D01*
X316840Y1206D01*
X318452Y1874D01*
X320000Y2680D01*
X321472Y3617D01*
X322856Y4679D01*
X324142Y5858D01*
X325321Y7144D01*
X326383Y8528D01*
X327321Y10000D01*
X328126Y11548D01*
X328794Y13160D01*
X329319Y14824D01*
X329696Y16527D01*
X329924Y18257D01*
X330000Y20000D01*
X330000Y410000D01*
X329924Y411743D01*
X329696Y413473D01*
X329319Y415176D01*
X328794Y416840D01*
X328126Y418452D01*
X327321Y420000D01*
X326383Y421472D01*
X325321Y422856D01*
X324142Y424142D01*
X322856Y425321D01*
X321472Y426383D01*
X320000Y427321D01*
X318452Y428126D01*
X316840Y428794D01*
X315176Y429319D01*
X313473Y429696D01*
X311743Y429924D01*
X310000Y430000D01*
X20000Y430000D01*
X18257Y429924D01*
X16527Y429696D01*
X14824Y429319D01*
X13160Y428794D01*
X11548Y428126D01*
X10000Y427321D01*
X8528Y426383D01*
X7144Y425321D01*
X5858Y424142D01*
X4679Y422856D01*
X3617Y421472D01*
X2680Y420000D01*
X1874Y418452D01*
X1206Y416840D01*
X681Y415176D01*
X304Y413473D01*
X76Y411743D01*
X0Y410000D01*
X0Y20000D01*
M02*
