M48
;GenerationSoftware,Autodesk,EAGLE,9.6.2*%
;CreationDate,2021-05-16T10:14:37Z*%
FMAT,2
ICI,OFF
METRIC,TZ,000.000
T7C0.350
T6C0.700
T5C0.800
T4C1.400
T3C1.700
T2C3.500
T1C5.000
%
G90
M71
T1
X22090Y5240
X14890Y5240
X22270Y37740
X15070Y37740
T2
X30000Y40000
X30000Y3000
X3000Y3000
X3000Y40000
T3
X5350Y34900
X5350Y30940
T4
X18840Y16381
X4870Y16381
X4870Y11301
X18840Y11301
T5
X23275Y22912
X23275Y24912
X23275Y26912
X14000Y31000
X16000Y31000
X29437Y24912
X29437Y26912
T6
X2360Y23620
X17360Y23620
T7
X8611Y8043
X8611Y2043
X29611Y8043
X26611Y8043
X10611Y26043
X24611Y20043
X10611Y20043
X10611Y14043
X26611Y14043
X29611Y36043
X18611Y32043
X18611Y20043
X23611Y32043
X2611Y8043
M30